<svg id="shape-atv" viewBox="0 0 55.66 37.84">
        <path d="M53.53,15.44v-6c-2.28,0-4.14,1.35-4.14,3S51.25,15.44,53.53,15.44Z" transform="translate(-10.54 -8.6)"></path>
        <path d="M60.1,26.77l1.39-6.94-12.93-4.2-1.65-3.71a4.57,4.57,0,0,0-2.48-2.25A1.51,1.51,0,0,0,43,8.6H36.71a1.53,1.53,0,0,0,0,3.06H43a1.5,1.5,0,0,0,1.11-.48,3,3,0,0,1,1.42,1.36l1.39,3.12-4.59,6.5L11.6,17.77V21l6.75,3.45.42,1.62a10.28,10.28,0,1,0,12.29,11H45.69A10.27,10.27,0,1,0,60.1,26.77ZM20.82,40.91a4.76,4.76,0,1,1,4.76-4.75A4.75,4.75,0,0,1,20.82,40.91Zm35.1,0a4.76,4.76,0,1,1,4.76-4.75A4.75,4.75,0,0,1,55.92,40.91Z" transform="translate(-10.54 -8.6)"></path>
</svg>