<svg id="shape-car" viewBox="0 0 30 24.4">
        <path d="M30,7.8c0-0.8-0.7-1.5-1.5-1.5h-1.6l-1.5-4.1C25,1,24,0,22.2,0H7.7C5.9,0,4.9,1,4.5,2.2L3,6.3H1.5             C0.7,6.3,0,7,0,7.8s0.7,1.5,1.5,1.5h0.4l-0.4,1.1c0,0-0.3,0.7-0.3,1.6v10.1c0,3.1,4.3,3.1,4.3,0v-1.3h18.9v1.3c0,3.1,4.3,3.1,4.3,0             V12c0-0.9-0.3-1.6-0.3-1.6l-0.4-1.1h0.5C29.3,9.3,30,8.7,30,7.8z M5.9,4.7C6.1,4,6.4,3.5,7.2,3.5h15.2c0.7,0,1.1,0.5,1.3,1.2l1.5,5             H4.3L5.9,4.7z M5.9,16.4c-1.1,0-2-0.9-2-2c0-1.2,0.9-2.1,2-2c1.1,0,2,0.9,2,2C7.9,15.3,7,16.4,5.9,16.4z M23.8,16.4             c-1.1,0-2-0.9-2-2c0-1.2,0.9-2.1,2-2c1.1,0,2,0.9,2,2C25.9,15.3,25,16.4,23.8,16.4z"></path>
</svg>