<?xml version="1.0" encoding="UTF-8" standalone="no"?>
<svg
   xmlns:dc="http://purl.org/dc/elements/1.1/"
   xmlns:cc="http://creativecommons.org/ns#"
   xmlns:rdf="http://www.w3.org/1999/02/22-rdf-syntax-ns#"
   xmlns:svg="http://www.w3.org/2000/svg"
   xmlns="http://www.w3.org/2000/svg"
   xmlns:xlink="http://www.w3.org/1999/xlink"
   xmlns:sodipodi="http://sodipodi.sourceforge.net/DTD/sodipodi-0.dtd"
   xmlns:inkscape="http://www.inkscape.org/namespaces/inkscape"
   width="250.86533"
   height="168.18459"
   id="svg2"
   version="1.1"
   inkscape:version="0.91 r13725"
   sodipodi:docname="Québec_P-130-59.svg">
  <metadata
     id="metadata285">
    <rdf:RDF>
      <cc:Work
         rdf:about="">
        <dc:format>image/svg+xml</dc:format>
        <dc:type
           rdf:resource="http://purl.org/dc/dcmitype/StillImage" />
        <dc:title></dc:title>
      </cc:Work>
    </rdf:RDF>
  </metadata>
  <sodipodi:namedview
     pagecolor="#ffffff"
     bordercolor="#666666"
     borderopacity="1"
     objecttolerance="10"
     gridtolerance="10"
     guidetolerance="10"
     inkscape:pageopacity="0"
     inkscape:pageshadow="2"
     inkscape:window-width="1366"
     inkscape:window-height="705"
     id="namedview283"
     showgrid="false"
     inkscape:zoom="3.0153465"
     inkscape:cx="194.10923"
     inkscape:cy="113.79055"
     inkscape:window-x="-8"
     inkscape:window-y="-8"
     inkscape:window-maximized="1"
     inkscape:current-layer="svg2"
     fit-margin-top="20"
     fit-margin-right="20"
     fit-margin-bottom="20"
     fit-margin-left="20" />
  <style
     type="text/css"
     id="style4">
	.marriage		{ fill: #002255; }	/* Same-sex marriages */
	.similar		{ fill: #0066ff; }	/* Unions granting rights similar to marriage */
	.enum			{ fill: #00ccff; }	/* Unions granting limited/enumerated rights */
	.foreign		{ fill: #7f7f7f; }	/* Foreign same-sex marriages recognized */
	.statuteban		{ fill: #ff9999; }	/* Statute bans same-sex marriage */
	.constitutionban	{ fill: #ff0000; }	/* Constitution bans same-sex marriage */
	.constitutionbanmore	{ fill: #990000; }	/* Constitution bans same-sex marriage and other kinds of same-sex unions */
	.nolaw			{ fill: #cccccc; }	/* No law specifically prohibiting or allowing for same-sex marriage */
	.circle			{ opacity:1 }		/* Toggles whether there is a circle on DC or not (only works in some viewers)*/
</style>
  <defs
     id="defs6">
    <path
       id="Striped-backdrop"
       d="M -132.07626,53.696731 -316.68508,238.30578 -128.75992,426.23535 55.848838,241.62624 -132.07626,53.696731 Z"
       inkscape:connector-curvature="0" />
    <g
       id="Striped-stripes"
       transform="matrix(-0.572543,0,0,0.572543,910.042,-517.798)">
      <path
         d="m 1994.1054,1172.1177 14.1422,14.1422 -328.2327,328.2326 -14.1421,-14.1421 328.2326,-328.2327 z"
         id="path10"
         inkscape:connector-curvature="0" />
      <path
         d="m 2128.4556,1306.4679 14.1421,14.1421 -328.2328,328.2327 -14.142,-14.1422 328.2327,-328.2326 z"
         id="path12"
         inkscape:connector-curvature="0" />
      <path
         d="m 1940.3652,1118.3778 14.1423,14.142 -328.2327,328.2326 -14.1421,-14.1421 328.2325,-328.2325 z"
         id="path14"
         inkscape:connector-curvature="0" />
      <path
         d="m 1967.2354,1145.2477 14.1421,14.1421 -328.2326,328.2327 -14.1423,-14.142 328.2328,-328.2328 z"
         id="path16"
         inkscape:connector-curvature="0" />
      <path
         d="m 2020.9755,1198.9878 14.1421,14.1421 -328.2328,328.2327 -14.142,-14.1422 328.2327,-328.2326 z"
         id="path18"
         inkscape:connector-curvature="0" />
      <path
         d="m 2047.8453,1225.8579 14.1423,14.142 -328.2327,328.2326 -14.1421,-14.1421 328.2325,-328.2325 z"
         id="path20"
         inkscape:connector-curvature="0" />
      <path
         d="m 2074.7155,1252.7278 14.1421,14.1421 -328.2326,328.2327 -14.1423,-14.1421 328.2328,-328.2327 z"
         id="path22"
         inkscape:connector-curvature="0" />
      <path
         d="m 2101.5855,1279.5978 14.1422,14.1422 -328.2327,328.2326 -14.1421,-14.1421 328.2326,-328.2327 z"
         id="path24"
         inkscape:connector-curvature="0" />
      <path
         d="m 1913.4952,1091.5077 14.1422,14.142 -328.2327,328.2326 -14.142,-14.1421 328.2325,-328.2325 z"
         id="path26"
         inkscape:connector-curvature="0" />
      <path
         d="m 1886.6251,1064.6376 14.1423,14.142 -328.2327,328.2326 -14.1421,-14.1421 328.2325,-328.2325 z"
         id="path28"
         inkscape:connector-curvature="0" />
      <path
         d="m 1859.7551,1037.7675 14.1423,14.142 -328.2328,328.2326 -14.142,-14.1421 328.2325,-328.2325 z"
         id="path30"
         inkscape:connector-curvature="0" />
      <path
         d="m 1832.885,1010.8974 14.1423,14.142 -328.2327,328.2326 -14.1421,-14.1421 328.2325,-328.2325 z"
         id="path32"
         inkscape:connector-curvature="0" />
    </g>
    <g
       id="Solid-marriage">
      <use
         xlink:href="#Striped-backdrop"
         class="marriage"
         id="use35"
         style="fill:#002255"
         x="0"
         y="0"
         width="959"
         height="593" />
      <use
         xlink:href="#Striped-stripes"
         class="marriage"
         id="use37"
         style="fill:#002255"
         x="0"
         y="0"
         width="959"
         height="593" />
    </g>
    <g
       id="Solid-similar">
      <use
         xlink:href="#Striped-backdrop"
         class="similar"
         id="use40"
         style="fill:#0066ff"
         x="0"
         y="0"
         width="959"
         height="593" />
      <use
         xlink:href="#Striped-stripes"
         class="similar"
         id="use42"
         style="fill:#0066ff"
         x="0"
         y="0"
         width="959"
         height="593" />
    </g>
    <g
       id="Solid-enum">
      <use
         xlink:href="#Striped-backdrop"
         class="enum"
         id="use45"
         style="fill:#00ccff"
         x="0"
         y="0"
         width="959"
         height="593" />
      <use
         xlink:href="#Striped-stripes"
         class="enum"
         id="use47"
         style="fill:#00ccff"
         x="0"
         y="0"
         width="959"
         height="593" />
    </g>
    <g
       id="Striped-enum-foreign">
      <use
         xlink:href="#Striped-backdrop"
         class="enum"
         id="use50"
         style="fill:#00ccff"
         x="0"
         y="0"
         width="959"
         height="593" />
      <use
         xlink:href="#Striped-stripes"
         class="foreign"
         id="use52"
         style="fill:#7f7f7f"
         x="0"
         y="0"
         width="959"
         height="593" />
    </g>
    <g
       id="Solid-foreign">
      <use
         xlink:href="#Striped-backdrop"
         class="foreign"
         id="use55"
         style="fill:#7f7f7f"
         x="0"
         y="0"
         width="959"
         height="593" />
      <use
         xlink:href="#Striped-stripes"
         class="foreign"
         id="use57"
         style="fill:#7f7f7f"
         x="0"
         y="0"
         width="959"
         height="593" />
    </g>
    <g
       id="Solid-statuteban">
      <use
         xlink:href="#Striped-backdrop"
         class="statuteban"
         id="use60"
         style="fill:#ff9999"
         x="0"
         y="0"
         width="959"
         height="593" />
      <use
         xlink:href="#Striped-stripes"
         class="statuteban"
         id="use62"
         style="fill:#ff9999"
         x="0"
         y="0"
         width="959"
         height="593" />
    </g>
    <g
       id="Solid-constitutionban">
      <use
         xlink:href="#Striped-backdrop"
         class="constitutionban"
         id="use65"
         style="fill:#ff0000"
         x="0"
         y="0"
         width="959"
         height="593" />
      <use
         xlink:href="#Striped-stripes"
         class="constitutionban"
         id="use67"
         style="fill:#ff0000"
         x="0"
         y="0"
         width="959"
         height="593" />
    </g>
    <g
       id="Solid-constitutionbanmore">
      <use
         xlink:href="#Striped-backdrop"
         class="constitutionbanmore"
         id="use70"
         style="fill:#990000"
         x="0"
         y="0"
         width="959"
         height="593" />
      <use
         xlink:href="#Striped-stripes"
         class="constitutionbanmore"
         id="use72"
         style="fill:#990000"
         x="0"
         y="0"
         width="959"
         height="593" />
    </g>
    <g
       id="Solid-nolaw">
      <use
         xlink:href="#Striped-backdrop"
         class="nolaw"
         id="use75"
         style="fill:#cccccc"
         x="0"
         y="0"
         width="959"
         height="593" />
      <use
         xlink:href="#Striped-stripes"
         class="nolaw"
         id="use77"
         style="fill:#cccccc"
         x="0"
         y="0"
         width="959"
         height="593" />
    </g>
    <g
       id="Striped-enum-statute">
      <use
         xlink:href="#Striped-backdrop"
         class="statuteban"
         id="use80"
         style="fill:#ff9999"
         x="0"
         y="0"
         width="959"
         height="593" />
      <use
         xlink:href="#Striped-stripes"
         class="enum"
         id="use82"
         style="fill:#00ccff"
         x="0"
         y="0"
         width="959"
         height="593" />
    </g>
    <g
       id="Striped-enum-constitution">
      <use
         xlink:href="#Striped-backdrop"
         class="enum"
         id="use85"
         style="fill:#00ccff"
         x="0"
         y="0"
         width="959"
         height="593" />
      <use
         xlink:href="#Striped-stripes"
         class="constitutionban"
         id="use87"
         style="fill:#ff0000"
         x="0"
         y="0"
         width="959"
         height="593" />
    </g>
    <g
       id="Striped-enum-constitutionbanmore">
      <use
         xlink:href="#Striped-backdrop"
         class="enum"
         id="use90"
         style="fill:#00ccff"
         x="0"
         y="0"
         width="959"
         height="593" />
      <use
         xlink:href="#Striped-stripes"
         class="constitutionbanmore"
         id="use92"
         style="fill:#990000"
         x="0"
         y="0"
         width="959"
         height="593" />
    </g>
    <g
       id="Striped-similar-constitution">
      <use
         xlink:href="#Striped-backdrop"
         class="similar"
         id="use95"
         style="fill:#0066ff"
         x="0"
         y="0"
         width="959"
         height="593" />
      <use
         xlink:href="#Striped-stripes"
         class="constitutionban"
         id="use97"
         style="fill:#ff0000"
         x="0"
         y="0"
         width="959"
         height="593" />
    </g>
    <g
       id="Striped-similar-statute">
      <use
         xlink:href="#Striped-backdrop"
         class="similar"
         id="use100"
         style="fill:#0066ff"
         x="0"
         y="0"
         width="959"
         height="593" />
      <use
         xlink:href="#Striped-stripes"
         class="statuteban"
         id="use102"
         style="fill:#ff9999"
         x="0"
         y="0"
         width="959"
         height="593" />
    </g>
    <g
       id="Striped-similar-foreign">
      <use
         xlink:href="#Striped-backdrop"
         class="foreign"
         id="use105"
         style="fill:#7f7f7f"
         x="0"
         y="0"
         width="959"
         height="593" />
      <use
         xlink:href="#Striped-stripes"
         class="similar"
         id="use107"
         style="fill:#0066ff"
         x="0"
         y="0"
         width="959"
         height="593" />
    </g>
    <clipPath
       id="clipPathAL">
      <path
         id="pathAL"
         d="m -146.53819,323.97851 -1.6156,-15.1965 -2.74824,-18.75264 0.16166,-14.06449 0.8083,-31.03885 -0.16166,-16.65106 0.16509,-6.41906 7.7563,-0.37069 27.80564,-2.58656 8.92254,-0.6622 -0.1478,2.18242 0.16166,2.1016 0.64665,3.39487 3.39488,7.92137 2.4249,9.86131 1.45495,6.14311 1.6166,4.84982 1.45496,6.95141 2.10158,6.30476 2.58657,3.39489 0.48498,3.39486 1.93994,0.80831 0.16166,2.10159 -1.77828,4.84982 -0.48498,3.23322 -0.16166,1.93992 1.61662,4.36485 0.32332,5.33479 -0.80832,2.42492 0.64666,0.8083 1.45494,0.8083 1.03525,2.53527 -6.30477,0 -6.78975,0.64665 -25.5424,2.90988 -10.41156,1.40677 -0.0964,3.7524 1.77827,1.77827 2.58657,1.93992 0.58086,7.93544 -5.54206,2.5729 -2.74822,-0.32332 2.74822,-1.93993 0,-0.96996 -3.07154,-5.98144 -2.26325,-0.64664 -1.45495,4.36483 -1.29328,2.74823 -0.64664,-0.16166 -2.74823,0 z"
         inkscape:connector-curvature="0" />
    </clipPath>
    <clipPath
       id="clipPathAK">
      <path
         id="pathAK"
         d="m -95.16729,175.26392 -0.32332,85.35713 1.6166,0.96996 3.07157,0.16166 1.45494,-1.13162 2.58658,0 0.16167,2.9099 6.95143,6.78977 0.48499,2.58658 3.39488,-1.93994 0.64665,-0.16166 0.32332,-3.07156 1.45494,-1.61661 1.13164,-0.16166 1.93993,-1.45496 3.07156,2.1016 0.64665,2.90991 1.93993,1.13162 1.13163,2.42492 3.87988,1.77827 3.39488,5.98147 2.74823,3.87986 2.26326,2.74825 1.45496,3.7182 5.01149,1.77828 5.17317,2.10159 0.96996,4.36486 0.48498,3.07156 -0.96996,3.39489 -1.77828,2.26325 -1.61661,-0.8083 -1.45495,-3.07157 -2.74824,-1.45494 -1.77827,-1.13164 -0.80831,0.80831 1.45495,2.74825 0.16166,3.7182 -1.13163,0.48498 -1.93993,-1.93993 -2.10159,-1.29329 0.48498,1.61661 1.29328,1.77828 -0.8083,0.8083 c 0,0 -0.8083,-0.32332 -1.29328,-0.96997 -0.485,-0.64664 -2.1016,-3.39488 -2.1016,-3.39488 l -0.96997,-2.26326 c 0,0 -0.32332,1.29329 -0.96997,0.96996 -0.64665,-0.32332 -1.29329,-1.45494 -1.29329,-1.45494 l 1.77827,-1.93994 -1.45495,-1.45495 0,-5.0115 -0.8083,0 -0.8083,3.39488 -1.13164,0.485 -0.96996,-3.71822 -0.64665,-3.71821 -0.80831,-0.48498 0.32333,5.65815 0,1.13162 -1.45496,-1.29328 -3.55654,-5.98147 -2.1016,-0.48498 -0.64664,-3.71821 -1.61661,-2.9099 -1.61662,-1.13164 0,-2.26325 2.1016,-1.29329 -0.48498,-0.32332 -2.58658,0.64664 -3.39489,-2.42491 -2.58658,-2.90991 -4.84983,-2.58658 -4.04154,-2.58658 1.2933,-3.23322 0,-1.61661 -1.77828,1.61661 -2.9099,1.13163 -3.71821,-1.13163 -5.65815,-2.42491 -5.49647,0 -0.64664,0.48498 -6.46645,-3.87988 -2.1016,-0.32332 -2.74824,-5.8198 -3.55655,0.32332 -3.55655,1.45495 0.48499,4.52652 1.13162,-2.9099 0.96998,0.32332 -1.45496,4.36485 3.23322,-2.74824 0.64665,1.61661 -3.87987,4.36485 -1.29329,-0.32332 -0.48498,-1.93994 -1.29329,-0.8083 -1.29329,1.13163 -2.74824,-1.77827 -3.07157,2.1016 -1.77826,2.10159 -3.39489,2.1016 -4.68818,-0.16167 -0.48498,-2.10159 3.7182,-0.64665 0,-1.29328 -2.26326,-0.64666 0.96998,-2.42491 2.26325,-3.87987 0,-1.77827 0.16166,-0.80831 4.36486,-2.26326 0.96996,1.29329 2.74825,0 -1.29329,-2.58657 -3.71822,-0.32333 -5.01149,2.74824 -2.42492,3.39488 -1.77827,2.58659 -1.13163,2.26326 -4.20319,1.45494 -3.07157,2.58658 -0.32332,1.61662 2.26326,0.96997 0.80831,2.10158 -2.74825,3.23323 -6.46644,4.2032 -7.75975,4.20319 -2.10159,1.13162 -5.33482,1.13164 -5.33483,2.26325 1.77828,1.29329 -1.45496,1.45495 -0.48498,1.13163 -2.74824,-0.96997 -3.23322,0.16166 -0.80831,2.26326 -0.96996,0 0.32332,-2.42492 -3.55655,1.2933 -2.9099,0.96996 -3.39489,-1.29329 -2.9099,1.93993 -3.23322,0 -2.1016,1.2933 -1.61661,0.8083 -2.1016,-0.32332 -2.58658,-1.13163 -2.26325,0.64665 -0.96997,0.96996 -1.61661,-1.13162 0,-1.93994 3.07156,-1.29329 6.30479,0.64665 4.36485,-1.61662 2.1016,-2.10159 2.9099,-0.64665 1.77827,-0.80831 2.74824,0.16166 1.61662,1.2933 0.96996,-0.32332 2.26326,-2.74824 3.07157,-0.96998 3.39488,-0.64664 1.29329,-0.32332 0.64664,0.48498 0.80831,0 1.29329,-3.71821 4.04153,-1.45494 1.93994,-3.71821 2.26326,-4.52652 1.61661,-1.45495 0.32332,-2.58658 -1.61661,1.29329 -3.3949,0.64665 -0.64664,-2.42492 -1.29328,-0.32332 -0.96997,0.96996 -0.16167,2.90991 -1.45495,-0.16167 -1.45494,-5.8198 -1.2933,1.29328 -1.13162,-0.48498 -0.32332,-1.93993 -4.04154,0.16166 -2.10159,1.13163 -2.58658,-0.32332 1.45494,-1.45495 0.48499,-2.58658 -0.64665,-1.93994 1.45496,-0.96996 1.29328,-0.16166 -0.64664,-1.77828 0,-4.36485 -0.96996,-0.96997 -0.80831,1.45495 -6.14313,0 -1.45495,-1.29329 -0.64664,-3.87986 -2.1016,-3.55656 0,-0.96996 2.1016,-0.80831 0.16166,-2.1016 1.13163,-1.13162 -0.80831,-0.48498 -1.29329,0.48498 -1.13163,-2.74824 0.96997,-5.01151 4.52651,-3.23321 2.58658,-1.61662 1.93993,-3.7182 2.74825,-1.2933 2.58658,1.13164 0.32332,2.42492 2.42492,-0.32334 3.23322,-2.42491 1.61661,0.64665 0.96997,0.64664 1.61661,0 2.26326,-1.29329 0.80831,-4.36486 c 0,0 0.32332,-2.90989 0.96997,-3.39488 0.64664,-0.48498 0.96996,-0.96996 0.96996,-0.96996 l -1.13162,-1.93994 -2.58658,0.80831 -3.23323,0.8083 -1.93994,-0.48498 -3.55654,-1.77828 -5.01149,-0.16166 -3.55656,-3.7182 0.48498,-3.87987 0.64666,-2.42492 -2.1016,-1.77827 -1.93994,-3.71822 0.48499,-0.8083 6.78977,-0.48498 2.10159,0 0.96997,0.96996 0.64665,0 -0.16166,-1.61661 3.87986,-0.64664 2.58658,0.32332 1.45495,1.13163 -1.45495,2.1016 -0.48498,1.45494 2.74825,1.61662 5.01149,1.77827 1.77828,-0.96996 -2.26326,-4.36485 -0.96997,-3.23323 0.96997,-0.80831 -3.39489,-1.93993 -0.48498,-1.13164 0.48498,-1.6166 -0.8083,-3.87987 -2.90991,-4.68818 -2.42492,-4.20319 2.90991,-1.93994 3.23322,0 1.77828,0.64665 4.20319,-0.16166 3.7182,-3.55654 1.13164,-3.07157 3.71821,-2.42492 1.6166,0.96997 2.74824,-0.64665 3.71821,-2.1016 1.13164,-0.16166 0.96996,0.80832 4.52651,-0.16167 2.74824,-3.07156 1.13163,0 3.55655,2.42491 1.93993,2.1016 -0.48498,1.13163 0.64664,1.13163 1.61662,-1.61661 3.87987,0.32332 0.32332,3.7182 1.93994,1.45496 7.11309,0.64664 6.30479,4.20319 1.45494,-0.96996 5.17317,2.58658 2.10159,-0.64664 1.93994,-0.80832 4.84983,1.93994 4.36486,2.9099 z m -115.1028,28.93736 2.1016,5.33482 -0.16166,0.96997 -2.9099,-0.32333 -1.77828,-4.04153 -1.77827,-1.45494 -2.42492,0 -0.16166,-2.58659 1.77827,-2.42492 1.13163,2.42492 1.45495,1.45495 2.74824,0.64665 z m -2.58658,33.46387 3.71821,0.80831 3.71821,0.96996 0.80831,0.96998 -1.61662,3.7182 -3.07156,-0.16166 -3.39489,-3.55654 -0.16166,-2.74825 z m -20.69263,-14.06452 1.13163,2.58657 1.13162,1.61662 -1.13162,0.8083 -2.1016,-3.07156 0,-1.93993 0.96997,0 z m -13.74121,73.07087 3.39489,-2.26326 3.39489,-0.96997 2.58658,0.32332 0.48498,1.61661 1.93993,0.48499 1.93994,-1.93993 -0.32333,-1.61661 2.74825,-0.64665 2.9099,2.58658 -1.13163,1.77827 -4.36485,1.13163 -2.74825,-0.48498 -3.7182,-1.13163 -4.36486,1.45495 -1.61661,0.32332 -1.13163,-0.64664 z m 48.98335,-4.52651 1.61662,1.93993 2.10159,-1.61661 -1.45495,-1.2933 -2.26326,0.96998 z m 2.9099,3.07155 1.13163,-2.26325 2.1016,0.32332 -0.80831,1.93993 -2.42492,0 z m 23.60254,-1.93993 1.45495,1.77827 0.96998,-1.13162 -0.80832,-1.93994 -1.61661,1.29329 z m 8.72971,-12.44791 1.13163,5.8198 2.9099,0.80831 5.0115,-2.90991 4.36485,-2.58658 -1.6166,-2.42491 0.48498,-2.42492 -2.1016,1.29329 -2.9099,-0.80831 1.61661,-1.13162 1.93993,0.8083 3.87987,-1.77828 0.48499,-1.45494 -2.42492,-0.80831 0.8083,-1.93994 -2.74824,1.93994 -4.68817,3.55655 -4.84984,2.9099 -1.29329,1.13163 z m 42.35524,-19.88433 2.42492,-1.45495 -0.96997,-1.77828 -1.77827,0.96997 0.32332,2.26326 z"
         inkscape:connector-curvature="0" />
    </clipPath>
    <clipPath
       id="clipPathAZ">
      <path
         id="pathAZ"
         d="m -168.97711,274.24841 -2.62701,2.15833 -0.32332,1.45495 0.48498,0.96996 18.91427,10.66959 12.12454,7.59804 14.7111,8.56801 16.81269,10.02295 12.2862,2.42491 25.12794,2.70491 2.53082,-12.50695 3.75267,-27.24294 6.96486,-52.88116 4.25726,-30.96569 -24.59671,-3.67877 -27.20609,-4.57245 -33.42915,-6.31768 -2.9219,18.09184 -0.45724,0.45725 -1.71467,2.62916 -2.51485,-0.11432 -1.25742,-2.74347 -2.74347,-0.34293 -0.9145,-1.14311 -0.91448,0 -0.9145,0.57156 -1.94329,1.0288 -0.1143,6.97298 -0.22864,1.71467 -0.57154,12.57424 -1.48605,2.17191 -0.57156,3.31503 2.74347,4.91539 1.25742,5.82988 0.80019,1.0288 1.0288,0.57156 -0.11432,2.28622 -1.60035,1.37173 -3.42934,1.71467 -1.94329,1.9433 -1.48605,3.65795 -0.57156,4.91539 -2.85778,2.74347 -2.0576,0.68587 -0.11431,5.82988 -0.45725,1.71467 0.45725,0.80018 3.65796,0.57154 -0.57156,2.74348 -1.48605,2.17191 -3.77227,0.91449 z"
         inkscape:connector-curvature="0" />
    </clipPath>
    <clipPath
       id="clipPathAR">
      <path
         id="pathAR"
         d="m -56.89776,154.53097 -3.8473,0.93767 -6.17281,-0.45725 0.68587,-2.97209 3.20072,-2.74347 0.45724,-2.28623 -1.82898,-2.9721 -10.97389,0.45725 -20.80466,0.91449 -23.31951,0.68587 -23.31951,0.45724 1.60036,6.85869 -1e-5,8.23042 1.37175,10.97399 0.22862,37.83693 2.28623,1.94329 2.97209,-1.37173 2.74348,1.14311 0.43034,10.3233 22.88582,-0.14205 18.86387,-0.80102 10.12157,-0.19753 1.14563,-2.09037 -0.28662,-3.54951 -1.82563,-2.9721 1.59869,-1.48521 -1.59869,-2.5115 0.6842,-2.50983 1.36839,-5.60543 2.51819,-2.06263 -0.68587,-2.28456 3.65797,-5.37179 2.74347,-1.36839 -0.11348,-1.49358 -0.34544,-1.82564 2.85695,-5.59873 2.40304,-1.25659 0.38413,-3.42763 1.77067,-1.2417 0.85648,-4.23427 -1.34146,-4.01044 4.04152,-2.37671 0.55026,-2.0192 1.23528,-4.26758 0.80103,-3.25539 z"
         inkscape:connector-curvature="0" />
    </clipPath>
    <clipPath
       id="clipPathCA">
      <path
         id="pathCA"
         d="m -102.34618,389.89948 3.81508,-0.48862 1.48604,-2.01144 0.73204,-1.94109 -3.17652,-0.0901 -1.09917,-1.76303 0.77822,-1.71467 -0.04618,-6.15084 2.21809,-1.32778 2.6973,-2.58298 0.41108,-4.91539 1.64652,-3.49749 1.94329,-2.10376 3.26887,-1.71467 1.27939,-0.72983 0.75623,-1.48384 -0.86833,-0.89251 -0.96065,-1.51023 -0.93647,-5.34845 -2.90395,-5.23634 0.09706,-2.78625 -2.20083,-3.24806 -14.99896,-23.22938 -19.43292,-28.7141 -22.42699,-33.03376 -12.70245,-19.54491 1.79671,-7.20834 6.81252,-25.94866 8.1161,-31.43561 -12.3654,-3.33702 -13.48873,-3.42934 -12.57424,-4.11521 -7.54455,-2.0576 -11.43113,-2.97209 -7.05081,-2.4117 -1.58012,4.72436 -0.16166,7.43638 -5.17314,11.80121 -3.07154,2.58657 -0.32333,1.13162 -1.77826,0.80831 -1.45495,4.20317 -0.8083,3.23321 2.74823,4.20317 1.61661,4.20317 1.13162,3.55653 -0.32332,6.46642 -1.77827,3.07155 -0.64664,5.81978 -0.96996,3.71819 1.77826,3.87985 2.74823,4.52649 2.26325,4.84982 1.29328,4.04151 -0.32332,3.23321 -0.32332,0.48498 0,2.10158 5.65812,6.30476 -0.48498,2.42491 -0.64665,2.26325 -0.64664,1.93992 0.16166,8.24469 2.10159,3.71819 1.93992,2.58656 2.74823,0.48499 0.96996,2.74822 -1.13162,3.55653 -2.10159,1.61661 -1.13162,0 -0.8083,3.87985 0.48498,2.90989 3.23321,4.36483 1.6166,5.3348 1.45495,4.68815 1.29328,3.07155 3.39487,5.81978 1.45495,2.58656 0.48498,2.90989 1.6166,0.96996 0,2.42491 -0.8083,1.93993 -1.77827,7.11306 -0.48498,1.93992 2.42491,2.74823 4.20317,0.48498 4.5265,1.77827 3.87985,2.10158 2.90989,0 2.90988,3.07155 2.58657,4.84982 1.13162,2.26324 3.87986,2.10159 4.84981,0.8083 1.45494,2.10159 0.64665,3.23321 -1.45495,0.64664 0.32332,0.96996 3.23321,0.8083 2.74823,0.16167 2.90989,4.68815 3.87985,4.20317 0.80831,2.26325 2.58656,4.20317 0.32333,3.23321 0,9.37631 0.48498,1.77826 10.02295,1.45495 19.72257,2.74822 13.90754,0.9747 z m -87.94771,-49.71668 1.29328,1.53578 -0.16165,1.29329 -3.23323,-0.0808 -0.56581,-1.21246 -0.64664,-1.45495 3.31405,-0.0808 z m 1.93993,0 1.21246,-0.64664 3.55654,2.10159 3.07156,1.21245 -0.88914,0.64666 -4.52651,-0.2425 -1.61661,-1.61661 -0.8083,-1.45495 z m 20.69261,19.80348 1.77827,2.34408 0.80831,0.96997 1.53578,0.56581 0.56581,-1.45495 -0.96997,-1.77827 -2.6674,-2.02076 -1.0508,0.16166 0,1.21246 z m -1.45495,8.64886 1.77827,3.15239 1.21246,1.93994 -1.45495,0.24248 -1.29329,-1.21245 c 0,0 -0.72747,-1.45495 -0.72747,-1.85911 0,-0.40414 0,-2.18242 0,-2.18242 l 0.48498,-0.0808 z"
         inkscape:connector-curvature="0" />
    </clipPath>
    <clipPath
       id="clipPathCO">
      <path
         id="pathCO"
         d="m -75.96012,242.63979 1.43988,-21.28168 -32.09508,-3.06443 -24.46296,-2.69954 -37.26516,-4.11517 -20.69036,-2.51482 -2.62919,22.17642 -3.20071,22.40502 -3.75266,27.98666 -1.50566,11.1078 -0.2506,2.76326 33.92627,3.79425 37.74071,4.26657 31.96061,3.16587 16.6082,0.84634"
         inkscape:connector-curvature="0" />
    </clipPath>
    <clipPath
       id="clipPathCT">
      <path
         id="pathCT"
         d="m -178.80169,180.05038 -0.62752,-4.20439 -0.8083,-4.36484 -1.61661,-5.98145 -4.15188,0.90468 -21.82421,4.76898 0.64664,3.31406 1.45495,7.27474 0,8.08303 -1.13163,2.26326 1.8324,2.10912 4.95535,-3.4012 3.55653,-3.23321 1.93992,-2.10159 0.80831,0.64664 2.74822,-1.45494 5.17314,-1.13162 7.04469,-3.49127 z"
         inkscape:connector-curvature="0" />
    </clipPath>
    <clipPath
       id="clipPathDE">
      <path
         id="pathDE"
         d="m -65.64741,230.42318 0.58928,-2.1027 0.02152,-1.20491 -1.26945,-0.0884 -2.1016,1.61661 -1.45495,1.45494 1.45495,4.20319 2.26326,5.65812 2.10158,9.69965 1.61662,6.30478 5.01148,-0.16166 6.14212,-1.21193 -2.26423,-7.35502 -0.96997,0.48498 -3.55653,-2.4249 -1.77826,-4.68816 -1.93993,-3.55653 -2.26324,-0.96996 -2.10159,-3.55653 0.49894,-2.10159 z"
         inkscape:connector-curvature="0" />
    </clipPath>
    <clipPath
       id="clipPathFL">
      <path
         id="pathFL"
         d="m -113.69647,198.70529 2.26566,7.3186 3.7297,9.74226 5.33479,9.3763 3.71819,6.30476 4.84982,5.49646 4.04151,3.71819 1.6166,2.90989 -1.13162,1.29328 -0.8083,1.29328 2.90988,7.43639 2.90989,2.90988 2.58657,5.3348 3.55653,5.81978 4.52649,8.24468 1.29329,7.59804 0.48498,11.96288 0.64664,1.77826 -0.32332,3.39487 -2.42491,1.29329 0.32332,1.93992 -0.64664,1.93993 0.32332,2.4249 0.48498,1.93993 -2.74822,3.23321 -3.07155,1.45494 -3.87985,0.16166 -1.45495,1.61661 -2.4249,0.96996 -1.29329,-0.48498 -1.13162,-0.96996 -0.32332,-2.90989 -0.80831,-3.39487 -3.39487,-5.17314 -3.55653,-2.26324 -3.87985,-0.32332 -0.8083,1.29328 -3.07155,-4.36483 -0.64664,-3.55653 -2.58657,-4.04151 -1.77826,-1.13163 -1.61661,2.10159 -1.77826,-0.32332 -2.10159,-5.01148 -2.90989,-3.87985 -2.90989,-5.33479 -2.58656,-3.07155 -3.55653,-3.71819 2.10158,-2.42491 3.23321,-5.49646 -0.16166,-1.6166 -4.52649,-0.96996 -1.61661,0.64664 0.32333,0.64664 2.58656,0.96996 -1.45494,4.5265 -0.8083,0.48498 -1.77827,-4.04151 -1.29328,-4.84982 -0.32332,-2.74823 1.45494,-4.68815 0,-9.53797 -3.07155,-3.71819 -1.29328,-3.07155 -5.17314,-1.29328 -1.93992,-0.64664 -1.61661,-2.58657 -3.39487,-1.61661 -1.13162,-3.39487 -2.74823,-0.96996 -2.42491,-3.71819 -4.20317,-1.45494 -2.90989,-1.45495 -2.58656,0 -4.04152,0.80831 -0.16166,1.93992 0.80831,0.96996 -0.48499,1.13163 -3.07154,-0.16166 -3.71819,3.55653 -3.55654,1.93992 -3.87985,0 -3.23321,1.29329 -0.32332,-2.74823 -1.6166,-1.93993 -2.90989,-1.13162 -1.6166,-1.45495 -8.08303,-3.87985 -7.59804,-1.77826 -4.36483,0.64664 -5.98144,0.48498 -5.98144,2.10159 -3.47924,0.61296 -0.23792,-8.04975 -2.58657,-1.93992 -1.77827,-1.77827 0.32332,-3.07156 10.18462,-1.29328 25.5424,-2.90989 6.78975,-0.64664 5.436,0.28027 2.58657,3.87986 1.45494,1.45494 8.09816,0.51522 10.81975,-0.64664 21.51239,-1.29329 5.44572,-0.67437 4.57725,0.0277 0.16166,2.90989 3.824,0.8083 0.32332,-4.80677 -1.6166,-4.52651 0.95484,-0.73272 5.11269,0.45475 5.17314,0.32332 z m 12.54541,132.40508 2.42492,-0.64664 1.29328,-0.24249 1.45496,-2.34409 2.34408,-1.61661 1.29329,0.48499 1.69744,0.32332 0.40415,1.05079 -3.4757,1.21246 -4.2032,1.45495 -2.34408,1.21246 -0.88914,-0.88914 z m 13.4987,-5.01149 1.21246,1.0508 2.74824,-2.10159 5.33481,-4.20319 3.7182,-3.87987 2.50575,-6.6281 0.96997,-1.69744 0.16166,-3.39488 -0.72748,0.48498 -0.96996,2.82907 -1.45496,4.60733 -3.23322,5.254 -4.36484,4.20318 -3.39488,1.93993 -2.50575,1.53578 z"
         inkscape:connector-curvature="0" />
    </clipPath>
    <clipPath
       id="clipPathGA">
      <path
         id="pathGA"
         d="m -116.01403,167.58303 -4.84982,0.80831 -8.40636,1.13162 -8.56801,0.88913 0,2.18242 0.16166,2.1016 0.64664,3.39487 3.39488,7.92137 2.42491,9.86131 1.45494,6.14311 1.61661,4.84981 1.45495,6.95141 2.10159,6.30477 2.58657,3.39488 0.48498,3.39487 1.93993,0.8083 0.16166,2.1016 -1.77827,4.84981 -0.48498,3.23322 -0.16166,1.93993 1.61661,4.36484 0.32332,5.3348 -0.80831,2.42491 0.64665,0.80831 1.45495,0.8083 0.64664,3.39487 2.58657,3.87986 1.45494,1.45494 7.92138,0.16166 10.81975,-0.64664 21.51239,-1.29328 5.44572,-0.67437 4.57725,0.0277 0.16166,2.90989 2.58657,0.8083 0.32332,-4.36484 -1.61661,-4.5265 1.13163,-1.6166 5.81978,0.8083 4.97741,0.31778 -0.77542,-6.29879 2.26324,-10.02295 1.45495,-4.20318 -0.48499,-2.58656 3.33441,-6.2443 -0.5103,-1.35168 -1.91341,0.70458 -2.58656,-1.2933 -0.64665,-2.10159 -1.29328,-3.55653 -2.26326,-2.10159 -2.58656,-0.64664 -1.61661,-4.84982 -2.92501,-6.335 -4.20317,-1.93993 -2.1016,-1.93993 -1.29329,-2.58657 -2.10158,-1.93993 -2.26325,-1.29329 -2.26325,-2.90989 -3.07155,-2.26324 -4.52651,-1.77828 -0.48498,-1.45494 -2.42491,-2.90989 -0.48498,-1.45495 -3.39488,-4.90798 -3.39487,0.16167 -4.12991,-3.04364 -1.29328,-1.29328 -0.32332,-1.77827 0.8083,-1.93992 2.35164,-1.23514 -1.13394,-1.22222 0.07789,-0.29088 -5.81979,0.96996 -6.95141,0.8083 -6.78975,0.48499 z"
         inkscape:connector-curvature="0" />
    </clipPath>
    <clipPath
       id="clipPathHI">
      <path
         id="pathHI"
         d="m -218.20661,261.9308 1.93993,-3.55655 2.26326,-0.32332 0.32332,0.8083 -2.1016,3.07157 -2.42491,0 z m 10.18466,-3.71821 6.14313,2.58657 2.10159,-0.32332 1.61661,-3.87987 -0.64664,-3.39488 -4.2032,-0.48498 -4.04153,1.77827 -0.96996,3.71821 z m 30.71563,10.023 3.7182,5.49647 2.42492,-0.32332 1.13163,-0.48498 1.45495,1.29329 3.71821,-0.16166 0.96997,-1.45495 -2.90991,-1.77827 -1.93993,-3.71822 -2.1016,-3.55654 -5.8198,2.9099 -0.64664,1.77828 z m 20.20765,8.89137 1.29329,-1.93994 4.68817,0.96996 0.64665,-0.48498 6.14312,0.64664 -0.32332,1.2933 -2.58658,1.45494 -4.36485,-0.32332 -5.49648,-1.6166 z m 5.33482,5.17315 1.93994,3.87987 3.07155,-1.13163 0.32333,-1.61662 -1.61661,-2.10159 -3.71821,-0.32332 0,1.29329 z m 6.95143,-1.13163 2.26326,-2.9099 4.68817,2.42492 4.36485,1.13163 4.36486,2.74824 0,1.93993 -3.55654,1.77828 -4.84985,0.96996 -2.42491,-1.45495 -4.84984,-6.62811 z m 16.65111,15.51947 1.61661,-1.29328 3.39489,1.61662 7.59807,3.55654 3.39489,2.10159 1.6166,2.42492 1.93994,4.36485 4.04153,2.58658 -0.32332,1.2933 -3.87987,3.23322 -4.20319,1.45495 -1.45495,-0.64664 -3.07157,1.77826 -2.42491,3.23323 -2.26326,2.9099 -1.77828,-0.16166 -3.55654,-2.58658 -0.32332,-4.52651 0.64664,-2.42492 -1.61661,-5.65814 -2.1016,-1.77828 -0.16166,-2.58658 2.26326,-0.96996 2.1016,-3.07156 0.48498,-0.96997 -1.61661,-1.77828 -0.32332,-2.1016 z"
         inkscape:connector-curvature="0" />
    </clipPath>
    <clipPath
       id="clipPathID">
      <path
         id="pathID"
         d="m -195.50122,335.10819 c -22.61088,-4.34328 -14.14727,-2.847 -21.14067,-4.35074 l 4.42704,-17.50247 4.34383,-17.71825 1.37174,-4.22952 2.51484,-5.94418 -1.25742,-2.28623 -2.51486,0.11431 -0.80017,-1.0288 0.45725,-1.14311 0.34292,-3.08641 4.45815,-5.48695 1.82898,-0.45724 1.14311,-1.14311 0.57156,-3.20072 0.91448,-0.68586 3.88659,-5.82988 3.88659,-4.34383 0.22862,-3.77227 -3.42934,-2.62916 -1.31458,-4.40098 0.40009,-9.6593 3.65796,-16.46083 4.45814,-20.80466 3.77227,-13.48872 0.76193,-3.80318 12.99614,2.52811 -4.15808,21.50801 2.94791,7.70502 -1.05078,4.57245 1.98946,4.57245 3.20072,1.6927 4.46034,9.80658 2.6951,3.81844 0.61773,1.14312 3.42934,1.14312 0.45724,2.53901 -6.92682,16.80157 0.32096,3.31723 2.67531,2.87976 1.87736,0.48143 4.80107,-3.61399 0.36492,-0.50122 0.15606,0.84636 0.25281,4.13497 2.583,12.89521 3.45352,2.67531 0.43306,0.84635 2.14993,2.4467 -0.77819,2.78744 0.68586,3.75028 1.94551,0.9145 2.12574,-1.64431 2.58299,-0.48144 3.3612,1.60036 2.51485,-0.59354 3.79426,-0.16048 3.9789,1.60036 2.74348,-0.29676 0.93868,-2.3302 2.49065,-1.64872 0.72984,1.69269 0.61771,2.23785 2.30822,2.53904 -3.77227,23.98118 -5.14406,29.00876 -4.1592,-0.3187 -8.18424,-1.53221 -9.80658,-1.82898 -12.16316,-2.37856 -12.52808,-2.50386 -8.48322,-1.83997 -9.25921,-1.6685 -9.23503,-1.78283 z"
         inkscape:connector-curvature="0" />
    </clipPath>
    <clipPath
       id="clipPathIA">
      <path
         id="pathIA"
         d="m -18.54179,200.05549 0.17063,1.94245 2.28622,1.13976 1.14144,1.25658 0.34376,1.26161 3.88659,3.2024 0.68587,2.17275 -0.79934,2.86197 -1.48856,3.54448 -0.79934,2.74179 -2.17275,1.60204 -1.71551,0.5724 -5.48527,1.4852 -0.68587,2.28289 -0.79934,2.28455 0.57239,1.37174 1.71551,1.71384 -0.0017,3.66129 -2.1694,1.60036 -0.45891,1.48689 0,2.51652 -1.48856,0.45724 -1.71384,1.37007 -0.45557,1.48521 0.45557,1.71718 -1.37424,1.20445 -2.29376,-2.69133 -1.48354,-2.62665 -8.34053,0.79933 -10.1712,0.57073 -25.0367,0.68755 -13.03484,0.22862 -9.37352,0.22862 -1.31578,0.12125 -1.65465,-4.47177 -0.22862,-6.63007 -1.60036,-4.11521 -0.68586,-5.25831 -2.28623,-3.65797 -0.91448,-4.80107 -2.74348,-7.54455 -1.14311,-5.37264 -1.37174,-2.17191 -1.60036,-2.74346 1.82898,-4.34383 1.37174,-5.71557 -2.74347,-2.05761 -0.45725,-2.74347 0.9145,-2.51485 1.71467,0 11.54544,0 49.61111,-0.68587 19.87678,-0.68586 1.85073,2.74681 1.83234,2.62163 0.45557,0.80437 -1.83066,2.74849 0.45557,4.22199 2.51486,3.88659 2.96874,1.82395 2.40472,0.2303 1.31459,2.17611 z"
         inkscape:connector-curvature="0" />
    </clipPath>
    <clipPath
       id="clipPathIL">
      <path
         id="pathIL"
         d="m -110.7675,301.60133 0,-3.60471 0.25803,-4.86693 2.37672,-3.13683 1.77827,-3.7664 2.58657,-3.86275 -0.3715,-5.2524 -2.00521,-3.54257 -0.0964,-3.34668 0.69483,-5.26951 -0.82541,-7.17837 -1.06634,-15.77745 -1.29328,-15.01734 -0.92228,-11.6392 -0.27251,-0.92139 -0.8083,-2.58657 -1.29328,-3.71819 -1.61661,-1.77827 -1.45494,-2.58656 -0.23357,-5.48896 -9.90267,1.31224 -27.20609,1.71467 -8.68767,-0.42866 0.22862,2.37195 2.28623,0.68587 0.91448,1.14311 0.45725,1.82898 3.88658,3.42934 0.68588,2.28623 -0.68588,3.42934 -1.82898,3.65796 -0.68586,2.51484 -2.28623,1.82899 -1.82898,0.68587 -5.25832,1.37173 -0.68587,1.82898 -0.68587,2.05761 0.68587,1.37174 1.82898,1.60036 -0.22862,4.1152 -1.82899,1.60036 -0.68586,1.60036 0,2.74347 -1.82898,0.45724 -1.60036,1.14312 -0.22862,1.37174 0.22862,2.0576 -1.71467,1.31457 -1.0288,2.80064 0.45724,3.65795 2.28623,7.31593 7.31593,7.54455 5.48693,3.65796 -0.22862,4.34383 0.9145,1.37174 6.40143,0.45724 2.74347,1.37174 -0.68586,3.65796 -2.28623,5.94419 -0.68587,3.20072 2.28622,3.88658 6.40144,5.25832 4.57246,0.68587 2.05759,5.0297 2.05761,3.20071 -0.91449,2.97209 1.60036,4.11521 1.82898,2.05761 1.94436,-0.7923 0.68669,-2.16318 2.0363,-1.43784 3.23633,-1.10054 3.08866,1.1798 2.87569,1.06634 0.7912,-0.20984 -0.0653,-1.24198 -1.06633,-2.76534 0.4368,-2.37672 2.28034,-1.56843 2.35963,-0.98706 1.16271,-0.41969 -0.58136,-1.32438 -0.76012,-2.16687 1.2451,-1.26221 0.96997,-2.71403 z"
         inkscape:connector-curvature="0" />
    </clipPath>
    <clipPath
       id="clipPathIN">
      <path
         id="pathIN"
         d="m -113.16958,318.48388 0.0653,-2.85858 0.48499,-4.52651 2.26324,-2.90988 1.77828,-3.87987 2.58656,-4.20317 -0.48498,-5.81979 -1.77826,-2.74823 -0.32332,-3.23321 0.8083,-5.49647 -0.48498,-6.95141 -1.2933,-16.00441 -1.29328,-15.35776 -0.97047,-11.72002 3.07106,0.88951 1.45495,0.96996 1.13162,-0.32332 2.10159,-1.93992 2.82957,-1.61699 5.0928,-0.16204 21.98587,-2.26326 5.57573,-0.53316 1.50314,15.95621 4.25135,36.84155 0.59846,5.7716 -0.3715,2.26325 1.22798,1.79537 0.09639,1.37255 -2.52129,1.59951 -3.53943,1.55131 -3.20213,0.55028 -0.59846,4.86693 -4.57469,3.31247 -2.79642,4.01044 0.32332,2.37673 -0.58134,1.5342 -3.32647,0 -1.58553,-1.6166 -2.49331,1.2622 -2.68296,1.50314 0.16167,3.05445 -1.19379,0.25803 -0.46788,-1.01814 -2.16688,-1.50314 -3.25032,1.34148 -1.55131,3.00625 -1.43784,-0.8083 -1.45495,-1.59951 -4.46434,0.48499 -5.59283,0.96996 -2.90989,1.55132 z"
         inkscape:connector-curvature="0" />
    </clipPath>
    <clipPath
       id="clipPathKS">
      <path
         id="pathKS"
         d="m -55.01461,292.09845 -12.61826,0.20443 -46.08909,-0.45723 -44.55748,-2.05763 -24.62974,-1.25741 4.14379,-64.71997 21.83346,0.80017 40.46591,1.37173 44.12446,0.45725 5.09563,0 3.2469,3.2249 2.76766,0.22862 0.8903,1.07497 0,2.00923 -1.82898,1.60037 -0.45725,2.60717 2.21808,3.58983 2.51486,3.13256 2.51485,1.98946 1.05077,11.17832 -0.68587,35.02323 z"
         inkscape:connector-curvature="0" />
    </clipPath>
    <clipPath
       id="clipPathKY">
      <path
         id="pathKY"
         d="m -41.97615,272.98017 -2.32457,2.68293 -4.20319,3.55654 -4.29955,5.90217 -1.77827,1.77827 0,2.10158 -3.87986,2.10159 -5.65812,3.39488 -3.51956,0.38464 -51.86789,4.89886 -15.75956,1.77826 -4.6212,0.51271 -3.86835,-0.0277 -0.22695,4.22028 -8.17941,0.14456 -6.95141,0.64664 -10.43059,0.2056 1.91278,-0.22163 2.18005,-1.76202 2.0576,-1.1431 0.22863,-3.20073 0.91449,-1.82898 -1.60682,-2.5389 0.80183,-1.90681 2.26326,-1.77826 2.10158,-0.64665 2.74823,1.29329 3.55654,1.29328 1.13163,-0.32332 0.16166,-2.26325 -1.29329,-2.42491 0.32332,-2.26325 1.93993,-1.45494 2.58658,-0.64665 1.6166,-0.64664 -0.8083,-1.77827 -0.64664,-1.93993 1.13162,-0.8083 1.05079,-3.31406 2.99072,-1.69743 5.81979,-0.96996 3.55654,-0.48498 1.45494,1.93993 1.77827,0.8083 1.77827,-3.23321 2.90989,-1.45495 1.93993,1.61661 0.8083,1.13162 2.1016,-0.48498 -0.16167,-3.39487 2.9099,-1.61661 1.13162,-0.80831 1.13162,1.61661 4.68817,0 0.8083,-2.10159 -0.32332,-2.26324 2.90989,-3.55655 4.68816,-3.87985 0.48498,-4.5265 2.74824,-0.32332 3.87985,-1.77827 2.74824,-1.93993 -0.32333,-1.93993 -1.45495,-1.45494 0.56582,-2.18241 4.12235,-0.2425 2.42491,-0.8083 2.90989,1.6166 1.61661,4.36484 5.81979,0.32332 1.77826,1.77827 2.10159,0.16166 2.42491,-1.45494 3.07155,0.48498 1.29329,1.45494 2.74824,-2.58657 1.77826,-1.29329 1.61661,0 0.64664,2.74824 1.77827,0.96996 2.42179,2.21507 0.16166,5.49646 0.8083,1.61661 2.58658,1.45494 0.64664,2.26326 2.90989,3.71819 2.58656,2.74824 3.39405,1.97102 z"
         inkscape:connector-curvature="0" />
    </clipPath>
    <clipPath
       id="clipPathLA">
      <path
         id="pathLA"
         d="m -84.97413,263.94412 -1.02945,-2.61622 -1.14312,-3.09226 -3.31586,-3.54114 0.91616,-6.75023 -0.11849,-1.14143 -1.26161,0.3421 -8.23042,0.91281 -25.02832,0.45892 -0.68419,-2.39468 0.91281,-8.4557 3.31588,-5.94585 5.03136,-8.69102 -0.57407,-2.39802 1.25659,-0.68085 0.45893,-1.95249 -2.28624,-2.05593 -0.11179,-1.94245 -1.83066,-4.34551 -0.45641,-5.94085 -9.72483,0.11348 -19.2043,0.9145 -22.20497,0.0286 0.0286,9.57357 0.68587,9.37353 0.68587,3.88658 2.51485,4.11521 0.91449,5.02971 4.34383,5.48693 0.22862,3.20072 0.68587,0.68587 -0.68587,8.45904 -2.97209,5.02969 1.60036,2.05761 -0.68588,2.51484 -0.68586,7.31593 -1.37174,3.20071 0.12246,3.61645 4.68648,-1.52015 8.08302,-0.32332 10.34627,3.55653 6.46642,1.13163 3.71819,-1.45495 3.23321,1.13163 3.23321,0.96996 0.8083,-2.10159 -3.23321,-1.13162 -2.58657,0.48498 -2.74823,-1.6166 c 0,0 0.16167,-1.29329 0.80831,-1.45495 0.64664,-0.16166 3.07155,-0.96996 3.07155,-0.96996 l 1.77826,1.45494 1.77827,-0.96996 3.23321,0.64664 1.45494,2.42491 0.32332,2.26325 4.52649,0.32332 1.77827,1.77826 -0.8083,1.61661 -1.29329,0.8083 1.61661,1.6166 8.40634,3.55653 3.55653,-1.29328 0.96997,-2.42491 2.58656,-0.64664 1.77827,-1.45494 1.29328,0.96996 0.8083,2.90989 -2.26324,0.8083 0.64664,0.64664 3.39487,-1.29328 2.26325,-3.39487 0.8083,-0.48498 -2.10159,-0.32332 0.8083,-1.61661 -0.16166,-1.45494 2.10159,-0.48498 1.13162,-1.29329 0.64664,0.8083 c 0,0 -0.16166,3.07155 0.64665,3.07155 0.8083,0 4.20317,0.64665 4.20317,0.64665 l 4.04151,1.93992 0.96996,1.45495 2.90989,0 1.13163,0.96996 2.26324,-3.07155 0,-1.45495 -1.29328,0 -3.39487,-2.74822 -5.81978,-0.80831 -3.23321,-2.26324 1.13163,-2.74823 2.26324,0.32332 0.16166,-0.64664 -1.77826,-0.96996 0,-0.48499 3.23321,0 1.77826,-3.07154 -1.29328,-1.93993 -0.32332,-2.74823 -1.45495,0.16166 -1.93992,2.10159 -0.64664,2.58657 -3.07155,-0.64665 -0.96997,-1.77826 1.77827,-1.93993 2.02075,-1.77825 -0.35909,-0.72747 z"
         inkscape:connector-curvature="0" />
    </clipPath>
    <clipPath
       id="clipPathMA">
      <path
         id="pathMA"
         d="m -98.84256,169.13238 2.17192,-0.68588 0.45726,-1.71467 1.0288,0.11431 1.0288,2.28624 -1.25742,0.45724 -3.8866,0.11432 0.45724,-0.57156 z m -9.37354,0.80018 2.28622,-2.62917 1.60037,0 1.82899,1.48605 -2.40054,1.0288 -2.17192,1.0288 -1.14312,-0.91448 z m -34.79913,-21.98819 17.45937,-4.20318 2.26326,-0.64664 2.10158,-3.23321 3.73677,-1.66331 2.88924,4.41284 -2.42491,5.17314 -0.32332,1.45494 1.93993,2.58657 1.13162,-0.8083 1.77827,0 2.26324,2.58656 3.87986,5.98144 3.55653,0.48498 2.26324,-0.96996 1.77827,-1.77827 -0.80831,-2.74822 -2.10158,-1.61661 -1.45495,0.8083 -0.96996,-1.29328 0.48498,-0.48498 2.10159,-0.16166 1.77826,0.8083 1.93993,2.42491 0.96996,2.90989 0.32332,2.4249 -4.20317,1.45495 -3.87985,1.93992 -3.87985,4.5265 -1.93993,1.45494 0,-0.96996 2.42491,-1.45495 0.48498,-1.77826 -0.8083,-3.07155 -2.90989,1.45494 -0.8083,1.45495 0.48498,2.26324 -2.06633,1.00043 -2.7472,-4.52713 -3.39488,-4.36484 -2.0705,-1.81247 -6.53327,1.8762 -5.09233,1.05079 -21.82421,4.76899 -0.40259,-4.94463 0.64664,-10.58877 5.17315,-0.88914 6.78975,-1.2933 z"
         inkscape:connector-curvature="0" />
    </clipPath>
    <clipPath
       id="clipPathMD">
      <path
         id="pathMD"
         d="m -119.40234,240.32055 -6.14113,1.29222 -5.80581,0.16166 -1.84356,-7.09911 -2.10159,-9.69965 -2.26326,-5.65812 -1.28838,-4.39832 -7.50602,1.62235 -14.87621,2.82332 -37.45143,7.55091 1.1313,5.01166 0.96996,5.65811 0.32332,-0.32332 2.1016,-2.4249 2.26324,-2.61766 2.42491,-0.61556 1.45496,-1.45496 1.77826,-2.58657 1.29328,0.64665 2.90989,-0.32333 2.58658,-2.10157 2.00689,-1.45327 1.84523,-0.48499 1.64435,1.12996 2.90989,1.45493 1.93992,1.77827 1.21246,1.53579 4.12235,1.69743 0,2.90988 5.49646,1.2933 1.14444,0.54198 1.4119,-2.02833 2.88197,1.97017 -1.27817,2.48192 -0.76527,3.98566 -1.77826,2.58657 0,2.1016 0.64664,1.77826 5.06395,1.3557 4.3111,-0.0617 3.07154,0.96997 2.10159,0.32333 0.96996,-2.10159 -1.45494,-2.10158 0,-1.77828 -2.42491,-2.10159 -2.10158,-5.49644 1.29328,-5.3348 -0.16166,-2.10158 -1.29328,-1.2933 c 0,0 1.45494,-1.61659 1.45494,-2.26324 0,-0.64665 0.48498,-2.10158 0.48498,-2.10158 l 1.93993,-1.29329 1.93992,-1.6166 0.48498,0.96997 -1.45494,1.6166 -1.29328,3.71819 0.32332,1.13161 1.77826,0.32332 0.48498,5.49647 -2.10158,0.96995 0.32332,3.55654 0.48498,-0.16167 1.13162,-1.93992 1.61661,1.77827 -1.61661,1.29328 -0.32332,3.39488 2.58657,3.39486 3.87985,0.48498 1.61661,-0.80829 3.23655,4.18293 1.35835,0.5363 6.65367,-2.79695 2.00758,-4.02388 0.22695,-4.86378 z m -16.63249,8.98452 1.13162,2.50576 0.16166,1.77826 1.13163,1.8591 c 0,0 0.88914,-0.88913 0.88914,-1.21246 0,-0.32331 -0.72747,-3.07155 -0.72747,-3.07155 l -0.72748,-2.34409 -1.8591,0.48498 z"
         inkscape:connector-curvature="0" />
    </clipPath>
    <clipPath
       id="clipPathME">
      <path
         id="pathME"
         d="m -120.40284,267.72043 1.93993,2.10159 2.26325,3.71819 0,1.93992 -2.10159,4.68816 -1.93993,0.64664 -3.39487,3.07155 -4.84981,5.49645 c 0,0 -0.64664,0 -1.29328,0 -0.64664,0 -0.96997,-2.10158 -0.96997,-2.10158 l -1.77826,0.16166 -0.96996,1.45494 -2.42491,1.45494 -0.96996,1.45495 1.6166,1.45494 -0.48498,0.64665 -0.48498,2.74822 -1.93993,-0.16166 0,-1.6166 -0.32332,-1.29329 -1.45494,0.32333 -1.77827,-3.23321 -2.10158,1.29328 1.29328,1.45494 0.32332,1.13163 -0.8083,1.29328 0.32332,3.07155 0.16166,1.6166 -1.6166,2.58657 -2.90989,0.48498 -0.32332,2.90989 -5.3348,3.07155 -1.29328,0.48498 -1.61661,-1.45494 -3.07155,3.55653 0.96997,3.23321 -1.45495,1.29328 -0.16166,4.36483 -1.12328,6.25936 -2.46225,-1.15595 -0.48499,-3.07156 -3.87985,-1.13163 -0.32332,-2.74824 -7.27475,-23.44082 -4.19858,-13.63974 1.42054,-0.11817 1.51379,0.4099 0,-2.58657 0.8083,-5.49645 2.58657,-4.68816 1.45495,-4.04151 -1.93993,-2.4249 0,-5.98144 0.8083,-0.96996 0.80831,-2.74823 -0.16166,-1.45495 -0.16167,-4.84981 1.77827,-4.84981 2.90989,-8.89133 2.10158,-4.20317 1.29329,0 1.29328,0.16166 0,1.13162 1.29329,2.26325 2.74822,0.64664 0.80831,-0.8083 0,-0.96997 4.04151,-2.90988 1.77826,-1.77827 1.45495,0.16166 5.98143,2.42491 1.93993,0.96996 9.05299,29.90719 5.98143,0 0.80831,1.93992 0.16166,4.84982 2.90988,2.26324 0.80831,0 0.16166,-0.48498 -0.48498,-1.13162 2.74822,-0.16166 z m -20.93175,30.14753 1.53578,-1.53578 1.37412,1.0508 0.56581,2.42492 -1.69744,0.88913 -1.77827,-2.82907 z m 6.70893,-5.90062 1.77827,1.8591 c 0,0 1.29329,0.0808 1.29329,-0.2425 0,-0.32332 0.24249,-2.02076 0.24249,-2.02076 l 0.88914,-0.8083 -0.80831,-1.77828 -2.02076,0.72748 -1.37412,2.26326 z"
         inkscape:connector-curvature="0" />
    </clipPath>
    <clipPath
       id="clipPathMI">
      <path
         id="pathMI"
         d="m -125.29062,140.23364 1.82899,-2.05761 2.17192,-0.80018 5.37264,-3.88659 2.28622,-0.57156 0.45726,0.45725 -5.14402,5.14402 -3.31504,1.94329 -2.05761,0.9145 -1.60036,-1.14312 z m 86.17438,32.12818 0.64664,2.50574 3.23322,0.16166 1.29329,-1.21246 c 0,0 -0.08083,-1.45494 -0.40415,-1.61661 -0.32333,-0.16166 -1.61661,-1.8591 -1.61661,-1.8591 l -2.18242,0.24249 -1.61662,0.16166 -0.32332,1.13163 0.96997,0.48499 z m 30.06638,63.0497 -3.23321,-8.24469 -2.26325,-9.05298 -2.4249,-3.23321 -2.58657,-1.77827 -1.6166,1.13163 -3.87986,1.77826 -1.93992,5.01148 -2.74823,3.71819 -1.13162,0.64664 -1.45495,-0.64664 c 0,0 -2.58656,-1.45495 -2.4249,-2.10159 0.16166,-0.64664 0.48498,-5.01147 0.48498,-5.01147 l 3.39487,-1.29329 0.8083,-3.39487 0.64664,-2.58656 2.42491,-1.61661 -0.32332,-10.02295 -1.61661,-2.26324 -1.29328,-0.80831 -0.8083,-2.10158 0.8083,-0.8083 1.6166,0.32332 0.16166,-1.61661 -2.4249,-2.26325 -1.29329,-2.58656 -2.58656,0 -4.5265,-1.45495 -5.49645,-3.39487 -2.74823,0 -0.64664,0.64665 -0.96997,-0.48499 -3.07154,-2.26324 -2.90989,1.77826 -2.90989,2.26325 0.32332,3.55653 0.96996,0.32332 2.10159,0.48498 0.48498,0.8083 -2.58657,0.80831 -2.58656,0.32332 -1.45495,1.77826 -0.32332,2.10159 0.32332,1.6166 0.32332,5.49646 -3.55653,2.10159 -0.64664,-0.16167 0,-4.20317 1.29328,-2.4249 0.64665,-2.42491 -0.80831,-0.8083 -1.93992,0.8083 -0.96997,4.20317 -2.74822,1.13162 -1.77827,1.93993 -0.16166,0.96996 0.64664,0.8083 -0.64664,2.58657 -2.26325,0.48498 0,1.13163 0.80831,2.4249 -1.13163,6.1431 -1.6166,4.04151 0.64664,4.68816 0.48498,1.13162 -0.8083,2.42491 -0.32332,0.8083 -0.32332,2.74823 3.55653,5.98143 2.90989,6.46642 1.45494,4.84982 -0.8083,4.68815 -0.96996,5.98144 -2.42491,5.17313 -0.32332,2.74823 -3.25887,3.08515 4.40861,-0.16205 21.41849,-2.26325 7.27784,-0.98706 0.09637,1.66635 6.85194,-1.21246 10.29808,-1.50313 3.8542,-0.46091 0.13805,-0.58755 0.16166,-1.45494 2.10158,-3.71819 2.00056,-1.73785 -0.22229,-5.05189 1.59699,-1.59699 1.09062,-0.34294 0.22228,-3.55653 1.53577,-3.03112 1.05079,0.60622 0.16166,0.64664 0.80831,0.16166 1.93992,-0.96996 -0.32332,-9.53797 z m -130.36798,-66.02371 0.71628,-0.5804 2.74823,-0.80831 3.55653,-2.26324 0,-0.96997 0.64665,-0.64664 5.98143,-0.96996 2.42491,-1.93993 4.36483,-2.10158 0.16166,-1.29328 1.93993,-2.90989 1.77826,-0.8083 1.29329,-1.77827 2.26324,-2.26325 4.36484,-2.4249 4.68815,-0.48499 1.13162,1.13163 -0.32332,0.96996 -3.71819,0.96996 -1.45494,3.07155 -2.26325,0.80831 -0.48498,2.4249 -2.42491,3.23321 -0.32332,2.58657 0.8083,0.48498 0.96997,-1.13162 3.55653,-2.90989 1.29328,1.29328 2.26325,0 3.23321,0.96996 1.45494,1.13163 1.45494,3.07155 2.74823,2.74822 3.87985,-0.16166 1.45495,-0.96996 1.6166,1.29328 1.61661,0.48499 1.29328,-0.80831 1.13162,0 1.61661,-0.96996 4.04151,-3.55653 3.39487,-1.13162 6.62808,-0.32332 4.52649,-1.93993 2.58657,-1.29328 1.45495,0.16166 0,5.65811 0.48498,0.32332 2.90988,0.80831 1.93993,-0.48499 6.1431,-1.6166 1.13162,-1.13162 1.45495,0.48498 0,6.9514 3.23321,3.07155 1.29328,0.64664 1.29328,0.96996 -1.29328,0.32332 -0.8083,-0.32332 -3.71819,-0.48498 -2.10159,0.64664 -2.26325,-0.16166 -3.23321,1.45495 -1.77826,0 -5.81978,-1.29329 -5.17313,0.16166 -1.93993,2.58657 -6.9514,0.64664 -2.42491,0.8083 -1.13162,3.07155 -1.29328,1.13163 -0.48498,-0.16166 -1.45495,-1.61661 -4.52649,2.42491 -0.64664,0 -1.13163,-1.61661 -0.8083,0.16166 -1.93992,4.36484 -0.96997,4.04151 -3.18112,7.0008 -1.17676,-1.03427 -1.37174,-1.03132 -1.94078,-10.28802 -3.54448,-1.37005 -2.05258,-2.28623 -12.12036,-2.74348 -2.85527,-1.02964 -8.23042,-2.17274 -7.88999,-1.14312 -3.7193,-5.14569 z"
         inkscape:connector-curvature="0" />
    </clipPath>
    <clipPath
       id="clipPathMN">
      <path
         id="pathMN"
         d="m -138.42335,243.29574 -0.45725,-8.45904 -1.82898,-7.31592 -1.82898,-13.48873 -0.45725,-9.83078 -1.82898,-3.42934 -1.60036,-5.02969 0,-10.28802 0.68586,-3.88659 -1.82093,-5.45167 30.13242,0.0353 0.32332,-8.24468 0.64664,-0.16166 2.26325,0.48498 1.93992,0.8083 0.8083,5.49646 1.45495,6.1431 1.6166,1.6166 4.84982,0 0.32332,1.45495 6.30476,0.32332 0,2.10158 4.84981,0 0.32332,-1.29328 1.13162,-1.13162 2.26325,-0.64665 1.29328,0.96997 2.90989,0 3.87985,2.58656 5.3348,2.42491 2.42491,0.48498 0.48498,-0.96996 1.45494,-0.48498 0.48498,2.90989 2.58657,1.29328 0.48498,-0.48498 1.29329,0.16166 0,2.10159 2.58656,0.96996 3.07155,0 1.61661,-0.8083 3.23321,-3.23321 2.58656,-0.48498 0.80831,1.77826 0.48498,1.29328 0.96996,0 0.96996,-0.8083 8.89133,-0.32332 1.77826,3.07155 0.64665,0 0.71361,-1.08428 4.43991,-0.37066 -0.6121,2.27945 -3.93872,1.83713 -9.24578,4.06113 -4.77474,2.00689 -3.07155,2.58657 -2.42491,3.55653 -2.26324,3.87985 -1.77827,0.80831 -4.52649,5.01147 -1.29329,0.16166 -3.84164,2.9339 -2.81644,3.16091 -0.22862,2.97042 0.22695,7.77819 -1.59702,1.60036 -5.25831,4.11352 -1.83233,5.71725 2.51819,3.64792 0.45892,2.51987 -1.14813,2.97377 -0.22696,3.65963 0.45725,7.08395 3.426,4.10685 2.97544,0 2.50983,2.29291 3.20239,1.36505 3.65964,5.03472 7.08729,5.023 1.83065,2.06262 0.23365,5.50201 -20.58775,0.68587 -60.24875,0.45892 -0.33792,-35.67685 -0.45724,-2.97209 -4.11521,-3.42934 -1.14312,-1.82898 0,-1.60037 2.0576,-1.60035 1.37174,-1.37174 0.22863,-3.20072 z"
         inkscape:connector-curvature="0" />
    </clipPath>
    <clipPath
       id="clipPathMO">
      <path
         id="pathMO"
         d="m -181.06309,201.9218 -2.51987,-3.08725 -1.14312,-2.28623 -7.77316,0.68586 -9.83078,0.45725 -25.37711,0.9145 -13.48873,0.22862 -7.88745,0.11431 -2.28626,0.1143 1.25743,2.51486 -0.22862,2.28622 2.51484,3.88659 3.0864,4.1152 3.08641,2.74347 2.28623,0.22863 1.37173,0.91449 0,2.9721 -1.82897,1.60035 -0.45726,2.28623 2.05761,3.42935 2.51486,2.97208 2.51484,1.82898 1.37173,11.65976 -0.68586,35.3222 0.22862,4.68675 0.45724,5.38351 23.43299,-0.11682 23.20603,-0.68587 20.80466,-0.80101 11.65474,-0.2303 2.1694,3.426 -0.68419,3.3075 -3.08725,2.40304 -0.57239,1.83735 5.37849,0.45725 3.89496,-0.68588 1.71718,-5.49363 0.65142,-5.85679 2.319,-2.02483 1.71215,-1.48689 2.05761,-1.02964 0.11514,-2.86029 0.57408,-1.71551 -1.03132,-1.74827 -2.74514,0.14457 -2.1694,-2.62499 -1.37342,-4.22867 0.80101,-2.5182 -1.94413,-3.42766 -1.83064,-4.5758 -4.79941,-0.79933 -6.9688,-5.59876 -1.71886,-4.11352 0.79935,-3.20072 2.05927,-6.05768 0.45892,-2.86363 -1.94914,-1.0313 -6.85534,-0.79768 -1.02797,-1.71215 -0.1118,-4.23037 -5.48694,-3.431 -6.97551,-7.7715 -2.28622,-7.31594 -0.23029,-4.22531 0.80101,-2.2879 z"
         inkscape:connector-curvature="0" />
    </clipPath>
    <clipPath
       id="clipPathMS">
      <path
         id="pathMS"
         d="m -62.61744,309.66417 -0.25426,1.25615 -5.17314,0 -1.45494,-0.8083 -2.10159,-0.32332 -6.78974,1.93992 -1.77826,-0.8083 -2.58657,4.20317 -1.10254,0.77802 -1.12383,-2.48798 -1.14312,-3.88659 -3.42933,-3.20071 1.1431,-7.54455 -0.68586,-0.91449 -1.82898,0.22862 -8.23042,0.68587 -24.234,0.68587 -0.45724,-1.60036 0.68587,-8.0018 3.42934,-6.17281 5.25832,-9.1449 -0.91449,-2.0576 1.14311,0 0.68587,-3.20072 -2.28623,-1.82898 0.22863,-1.82898 -2.05761,-4.57245 -0.28578,-5.34406 1.37173,-2.65774 -0.40008,-4.34383 -1.37174,-2.9721 1.37174,-1.37173 -1.37174,-2.0576 0.45725,-1.82898 0.91449,-6.17282 2.97209,-2.74346 -0.68587,-2.05761 3.65797,-5.25833 2.74347,-0.91448 0,-2.51485 -0.68587,-1.37174 2.74347,-5.25831 2.74347,-1.14312 0.10744,-3.41208 8.67545,-0.0774 24.08745,-1.93992 4.58058,-0.22863 0.0081,6.37172 0.16166,16.65106 -0.8083,31.03885 -0.16166,14.06449 2.74824,18.75264 1.48437,15.39529 z"
         inkscape:connector-curvature="0" />
    </clipPath>
    <clipPath
       id="clipPathMT">
      <path
         id="pathMT"
         d="m -30.27366,273.99535 0.64782,-11.15059 2.25849,-24.78712 c 0.45725,-5.0297 1.08371,-8.4721 1.37174,-15.41006 l 0.93976,-14.55162 -30.67432,-2.80783 -29.26055,-3.55653 -29.26054,-4.04151 -32.3321,-5.3348 -18.42929,-3.39487 -32.72365,-6.93273 -4.47902,21.34753 3.42934,7.54454 -1.37174,4.57245 1.82898,4.57245 3.20073,1.37174 4.62082,10.76945 2.6951,3.17653 0.45724,1.14312 3.42934,1.14311 0.45725,2.0576 -7.0873,17.60395 0,2.51485 2.51485,3.20071 0.91448,0 4.80107,-2.97209 0.68588,-1.14312 1.60036,0.68587 -0.22863,5.25832 2.74348,12.57425 2.97209,2.51484 0.91448,0.68587 1.82899,2.28622 -0.45725,3.42935 0.68587,3.42933 1.14312,0.9145 2.28622,-2.28623 2.74347,0 3.20072,1.60036 2.51485,-0.91449 4.11521,0 3.65795,1.60036 2.74348,-0.45725 0.45724,-2.9721 2.97209,-0.68586 1.37174,1.37174 0.45725,3.20071 1.77942,1.36497 1.5334,-11.56507 20.69255,2.97209 28.18872,3.95474 16.55318,1.89712 31.44608,3.4559 10.99014,1.52407 1.05197,-15.42726 1.40743,-5.34751 z"
         inkscape:connector-curvature="0" />
    </clipPath>
    <clipPath
       id="clipPathNE">
      <path
         id="pathNE"
         d="m -67.85896,267.43798 1.37174,2.67533 0.09233,2.12575 2.35437,3.72611 2.71929,3.15234 -5.04948,0 -43.48256,-0.93868 -40.78686,-0.8903 -21.19156,-0.96065 1.07277,-21.32785 -33.3789,-2.74347 4.34383,-44.00986 15.54633,1.02881 20.11879,1.1431 17.83257,1.14312 23.77676,1.14311 10.74526,-0.45724 2.0576,2.28622 4.80108,2.9721 1.14311,0.91449 4.34383,-1.37174 3.88659,-0.45724 2.74347,-0.22863 1.82898,1.37174 5.0297,1.60036 2.97209,1.60036 0.45725,1.60036 0.91449,2.0576 1.82898,0 0.79798,0.0462 0.98262,5.21215 2.74348,8.02598 1.23545,4.64059 2.12574,3.81845 0.52539,4.93736 1.43989,4.27568 0.54957,6.4696"
         inkscape:connector-curvature="0" />
    </clipPath>
    <clipPath
       id="clipPathNV">
      <path
         id="pathNV"
         d="m -163.48274,201.16598 20.98019,4.51122 9.71646,1.9433 9.25921,1.82897 6.61466,1.63333 -0.55837,5.86505 -3.54365,17.32915 -4.09322,19.98029 -1.94329,9.71867 -2.17192,13.28209 -3.15456,16.41465 -3.52166,15.68483 -1.96839,10.18036 -2.46557,16.77072 -0.45724,1.09915 -1.07276,2.46868 -1.87294,-0.11431 -1.09695,-2.74347 -2.74347,-0.50342 -1.39592,-0.98263 -2.03783,0.32096 -0.91449,0.73204 -1.30138,1.34975 -0.43526,6.97298 -0.54959,1.71467 -0.41107,12.09281 -1.3221,1.71416 -1.87642,-2.26153 -14.51752,-22.74795 -19.43292,-29.03506 -22.74794,-33.83614 -12.3815,-18.58204 1.63623,-6.56644 6.973,-25.94866 7.88747,-31.34785 33.60752,8.14264 13.71736,2.97209"
         inkscape:connector-curvature="0" />
    </clipPath>
    <clipPath
       id="clipPathNH">
      <path
         id="pathNH"
         d="m -125.88498,265.11446 0.869,-1.0765 1.09022,-3.29102 -2.54308,-0.91347 -0.48499,-3.07156 -3.87985,-1.13162 -0.32332,-2.74824 -7.27475,-23.44082 -4.60142,-14.54299 -0.89708,-0.005 -0.64664,1.61661 -0.64664,-0.48498 -0.96997,-0.96997 -1.45494,1.93993 -0.0485,5.03205 0.31165,5.66722 1.93992,2.74824 0,4.04152 -3.7182,5.06278 -2.58657,1.13164 0,1.13162 1.13163,1.77827 0,8.56802 -0.80831,9.21467 -0.16166,4.84982 0.96997,1.2933 -0.16166,4.52649 -0.48499,1.77828 1.45495,0.886 16.38992,-4.68972 2.26326,-0.64664 1.53421,-2.55236 3.73781,-1.70151 z"
         inkscape:connector-curvature="0" />
    </clipPath>
    <clipPath
       id="clipPathNJ">
      <path
         id="pathNJ"
         d="m -165.94044,257.96678 -2.10158,2.42491 0,3.07156 -1.93994,3.07155 -0.16166,1.61662 1.2933,1.29328 -0.16166,2.42492 -2.26326,1.13162 0.8083,2.74823 0.16166,1.13163 2.74824,0.32332 0.96996,2.58657 3.55654,2.42492 2.42491,1.6166 0,0.80831 -3.23321,3.07156 -1.61661,2.26324 -1.45495,2.74824 -2.26325,1.29328 -1.21245,0.72748 -0.2425,1.21246 -0.60923,2.60674 1.09227,2.24419 3.23321,2.90989 4.84981,2.26325 4.04151,0.64664 0.16166,1.45494 -0.8083,0.96996 0.32332,2.74823 0.8083,0 2.10159,-2.4249 0.8083,-4.84982 2.74823,-4.04151 3.07155,-6.46642 1.13162,-5.49645 -0.64664,-1.13163 -0.16166,-9.37631 -1.61661,-3.39486 -1.13162,0.8083 -2.74823,0.32332 -0.48498,-0.48498 1.13163,-0.96997 2.10158,-1.93992 0.0631,-1.09383 -0.38439,-3.43384 0.48498,-2.74824 -0.16166,-2.10159 -2.58657,-1.13163 -4.5265,-0.96996 -3.87986,-1.13163 -3.71821,-1.77827 z"
         inkscape:connector-curvature="0" />
    </clipPath>
    <clipPath
       id="clipPathNM">
      <path
         id="pathNM"
         d="m -118.37655,294.1988 -0.65041,-6.1231 8.64378,0.5254 29.51643,3.0644 28.39316,1.43989 1.96527,-22.33247 3.72608,-55.87597 1.11896,-19.38923 2.01364,0.34953 -0.01429,-11.075 -32.20352,-2.40306 -36.93832,-4.42704 -34.46486,-4.11521 -4.20011,30.75787 -6.96486,53.20211 -3.75266,26.92199 -2.04939,13.30934 15.46067,1.98915 1.29328,-10.02295 16.65103,2.58657 12.45612,1.61778 z"
         inkscape:connector-curvature="0" />
    </clipPath>
    <clipPath
       id="clipPathNY">
      <path
         id="pathNY"
         d="m -117.64612,251.71249 -1.13163,-0.96996 -2.58658,-0.16166 -2.26324,-1.93992 -1.63061,-6.12913 -3.45846,0.0905 -2.44371,-2.7082 -19.38532,4.38194 -43.00178,8.72969 -7.52965,1.22799 -0.73816,-6.46834 1.4281,-1.12538 1.29328,-1.13162 0.96997,-1.61661 1.77826,-1.13162 1.93993,-1.77827 0.48498,-1.6166 2.10158,-2.74823 1.13163,-0.96996 -0.16166,-0.96997 -1.29329,-3.07154 -1.77826,-0.16166 -1.93993,-6.1431 2.90989,-1.77827 4.36483,-1.45494 4.04152,-1.29329 3.23321,-0.48498 6.30475,-0.16166 1.93993,1.29329 1.6166,0.16166 2.10159,-1.29329 2.58657,-1.13162 5.17313,-0.48498 2.10159,-1.77827 1.77826,-3.23321 1.61661,-1.93992 2.10158,0 1.93993,-1.13163 0.16166,-2.26324 -1.45494,-2.10159 -0.32332,-1.45494 1.13162,-2.10159 0,-1.45494 -1.77827,0 -1.77826,-0.8083 -0.8083,-1.13163 -0.16166,-2.58657 5.81977,-5.49645 0.64664,-0.8083 1.45495,-2.90989 2.90989,-4.5265 2.74823,-3.71819 2.10158,-2.4249 2.4151,-1.82561 3.08136,-1.24594 5.49645,-1.29329 3.23321,0.16166 4.5265,-1.45494 7.56519,-2.07117 0.51979,4.97967 2.42492,6.46644 0.8083,5.17315 -0.96996,3.87986 2.58657,4.5265 0.8083,2.10159 -0.8083,2.9099 2.9099,1.29328 0.64664,0.32332 3.07156,10.99294 -0.53629,5.05967 -0.48498,10.83127 0.8083,5.49647 0.8083,3.55654 1.45495,7.27474 0,8.08304 -1.13163,2.26325 1.83933,1.99279 0.79655,1.67842 -1.93992,1.77827 0.32332,1.29328 1.29328,-0.32332 1.45495,-1.29328 2.26324,-2.58657 1.13163,-0.64664 1.6166,0.64664 2.26325,0.16166 7.92136,-3.87985 2.90989,-2.74823 1.29328,-1.45494 4.20317,1.6166 -3.39487,3.55653 -3.87985,2.90989 -7.11306,5.33479 -2.58656,0.96997 -5.81978,1.93992 -4.04151,1.13163 -1.17474,-0.53293 -0.24402,-3.68853 0.48498,-2.74824 -0.16166,-2.10158 -2.81351,-1.699 -4.5265,-0.96997 -3.87986,-1.13162 -3.7182,-1.77828 z"
         inkscape:connector-curvature="0" />
    </clipPath>
    <clipPath
       id="clipPathNC">
      <path
         id="pathNC"
         d="m -95.16185,206.80267 1.71,4.6986 3.55653,6.46642 2.4249,2.42491 0.64664,2.26325 -2.4249,0.16166 0.8083,0.64664 -0.32332,4.20317 -2.58657,1.29328 -0.64664,2.10159 -1.29328,2.90989 -3.7182,1.6166 -2.4249,-0.32332 -1.45495,-0.16166 -1.6166,-1.29328 0.32332,1.29328 0,0.96997 1.93993,0 0.8083,1.29328 -1.93993,6.30476 4.20317,0 0.64665,1.6166 2.26324,-2.26324 1.29329,-0.48499 -1.93993,3.55653 -3.07155,4.84982 -1.29328,0 -1.13163,-0.48498 -2.74822,0.64664 -5.17314,2.42491 -6.46642,5.33479 -3.39487,4.68815 -1.93992,6.46642 -0.48498,2.42491 -4.68816,0.48498 -5.45313,1.33666 -9.94641,-8.20253 -12.60954,-7.59805 -2.90989,-0.80831 -12.60953,1.45495 -4.27646,0.75015 -1.6166,-3.23322 -2.97036,-2.1167 -16.48939,0.48498 -7.27474,0.8083 -9.05299,4.52651 -6.14311,2.58656 -1.6166,0.32332 -5.81979,0.96997 -6.95141,0.8083 -6.78975,0.48499 0.50009,-4.05433 1.77827,-1.45494 2.74824,-0.64665 0.64664,-3.7182 4.20318,-2.74822 3.87985,-1.45496 4.20319,-3.55653 4.36483,-2.10159 0.64664,-3.07156 3.87986,-3.87985 0.64664,-0.16166 c 0,0 0,1.13163 0.80831,1.13163 0.8083,0 1.93993,0.32332 1.93993,0.32332 l 2.26325,-3.55654 2.10159,-0.64665 2.26324,0.32333 1.61662,-3.55653 2.90989,-2.58658 0.48498,-2.10159 0,-3.96069 4.5265,0.72748 7.13609,-1.29329 15.81973,-1.93993 17.13604,-2.58657 19.92173,-4.0006 19.73332,-4.16482 11.36444,-2.79643 5.14373,-1.17251 z m 3.89546,32.98782 2.58658,-2.50575 3.15238,-2.58658 1.53578,-0.64664 0.16166,-2.02076 -0.64664,-6.14312 -1.45495,-2.34408 -0.64665,-1.8591 0.72748,-0.2425 2.74824,5.49648 0.40415,4.44567 -0.16166,3.39489 -3.39488,1.53577 -2.82907,2.42492 -1.13162,1.21246 -1.0508,-0.16166 z"
         inkscape:connector-curvature="0" />
    </clipPath>
    <clipPath
       id="clipPathND">
      <path
         id="pathND"
         d="m -66.64162,259.79576 -0.36491,-7.49617 -1.98945,-7.31592 -1.82899,-13.64922 -0.45724,-9.83078 -1.98946,-3.10839 -1.60036,-5.35064 0,-10.28802 0.68586,-3.88659 -2.11535,-5.49901 -28.4235,-0.56403 -18.59095,-0.64664 -26.51232,-1.29328 -24.94634,-1.88387 -1.26072,14.23066 -1.37174,15.0891 -2.25848,24.9476 -0.48618,11.02022 56.81612,3.76415 56.69401,1.76083 z"
         inkscape:connector-curvature="0" />
    </clipPath>
    <clipPath
       id="clipPathOH">
      <path
         id="pathOH"
         d="m -37.1744,182.66763 -6.09354,4.05335 -3.87985,2.26325 -3.39487,3.71819 -4.04151,3.87985 -3.23321,0.8083 -2.90989,0.48498 -5.49646,2.58657 -2.10158,0.16166 -3.39487,-3.07155 -5.17314,0.64665 -2.58656,-1.45495 -2.38107,-1.35083 -4.89257,0.70341 -10.18462,1.61661 -7.75972,1.21246 1.29329,14.63028 1.77827,13.74117 2.58656,23.4408 0.56582,4.83117 4.12235,-0.12902 2.42491,-0.80831 3.3638,1.50314 2.07049,4.36483 5.13894,-0.0171 1.89174,2.1187 1.76117,-0.0653 2.53839,-1.34146 2.50417,0.3715 1.97413,1.45495 1.72697,-2.13268 2.34565,-1.29328 2.07049,-0.68085 0.64664,2.74824 1.77828,0.96996 3.47569,2.34407 2.18242,-0.0808 1.14562,-1.14873 -0.06529,-1.38653 1.61661,-1.45496 0.16166,-5.01147 c 0,0 0.96996,-3.87986 0.96996,-3.87986 l 1.52024,-1.44097 1.52023,0.90468 0.82541,1.21088 1.2109,-0.17563 -0.42281,-2.41093 -0.56426,-0.64352 0,-2.42492 0.96997,-1.29328 2.26324,-3.39487 1.29329,-1.45495 2.10159,0.48498 2.26325,-1.61661 3.07155,-3.39487 2.26326,-3.87986 0.20984,-5.43116 0.48498,-5.01149 0,-4.68816 -1.13162,-3.07155 0.96996,-1.45495 0.92051,-0.95461 -1.40491,-9.84283 -2.90989,-19.36177 z"
         inkscape:connector-curvature="0" />
    </clipPath>
    <clipPath
       id="clipPathOK">
      <path
         id="pathOK"
         d="m -245.96987,270.6643 -10.68815,-0.45719 -6.43001,-0.48582 0.2572,0.20003 -0.70344,10.4221 21.96538,1.40688 32.05555,1.3036 -2.3346,24.41865 -0.45725,17.83257 0.22863,1.60036 4.34383,3.65796 2.0576,1.14311 0.68587,-0.22862 0.68587,-2.05761 1.37174,1.82899 2.0576,0 0,-1.37174 2.74347,1.37174 -0.45724,3.88658 4.11521,0.22862 2.51484,1.14312 4.11521,0.68587 2.51485,1.82898 2.28623,-2.0576 3.42934,0.68586 2.51485,3.42934 0.91448,0 0,2.28623 2.28623,0.68586 2.28622,-2.28622 1.82899,0.68586 2.51484,0 0.9145,2.51486 4.80107,1.82897 1.37174,-0.68586 1.82898,-4.11521 1.14311,0 1.14312,2.0576 4.11521,0.68587 3.65795,1.37174 2.9721,0.91449 1.82899,-0.91449 0.68586,-2.51485 4.34383,0 2.0576,0.91449 2.74347,-2.05761 1.14312,0 0.68587,1.60036 4.1152,0 1.60036,-2.0576 1.82899,0.45724 2.0576,2.51486 3.20071,1.82897 3.20073,0.9145 1.94108,1.11893 -0.3891,-37.21701 -1.37175,-10.97398 -0.16046,-8.87234 -1.43989,-6.53773 -0.7782,-7.17964 -0.0681,-3.81622 -12.13684,0.31874 -46.41004,-0.45724 -45.03891,-2.05762 -24.2912,-1.37173 z"
         inkscape:connector-curvature="0" />
    </clipPath>
    <clipPath
       id="clipPathOR">
      <path
         id="pathOR"
         d="m -120.80299,326.11593 4.29765,-17.9007 4.66478,-17.87873 1.05079,-4.22952 2.35437,-5.62323 -0.61551,-1.16288 -2.51486,-0.0462 -1.2816,-1.6707 0.45724,-1.46407 0.50341,-3.24688 4.45815,-5.48695 1.82898,-1.09915 1.14311,-1.14311 1.48604,-3.56563 4.04706,-5.6694 3.56563,-3.8624 0.22862,-3.45132 -3.26886,-2.46868 -1.20889,-4.51004 -13.23829,-3.74455 -15.08909,-3.54365 -15.43202,0.1143 -0.45724,-1.37173 -5.48695,2.05761 -4.45814,-0.57156 -2.40054,-1.60036 -1.25742,0.68587 -4.68676,-0.22863 -1.71467,-1.37173 -5.25832,-2.0576 -0.80018,0.11431 -4.34383,-1.48605 -1.94329,1.82898 -6.17282,-0.34293 -5.94418,-4.11521 0.68587,-0.80018 0.22862,-7.77317 -2.28623,-3.88658 -4.11521,-0.57155 -0.68586,-2.51485 -2.35393,-0.46657 -5.79853,2.05879 -2.26324,6.46642 -3.23321,10.02294 -3.23321,6.46642 -5.01148,14.06446 -6.46642,13.57948 -8.08302,12.60952 -1.93993,2.90989 -0.8083,8.568 -1.29328,5.98144 2.70819,3.52743 6.72986,2.25122 11.59161,3.29304 7.86549,2.53904 12.41377,3.63378 13.32826,3.58982 13.16778,3.56561"
         inkscape:connector-curvature="0" />
    </clipPath>
    <clipPath
       id="clipPathPA">
      <path
         id="pathPA"
         d="m -101.72601,260.76426 1.13164,-0.64665 2.26324,-0.61243 1.45495,-2.74824 1.61661,-2.26325 3.23321,-3.07156 0,-0.8083 -2.42491,-1.6166 -3.55654,-2.42492 -0.96996,-2.58657 -2.74824,-0.32332 -0.16166,-1.13163 -0.8083,-2.74823 2.26326,-1.13162 0.16166,-2.42492 -1.2933,-1.29329 0.16166,-1.61661 1.93994,-3.07155 0,-3.07156 2.34408,-2.42491 0.21452,-1.08345 -2.58658,-0.16166 -2.26324,-1.93992 -2.42492,-5.33481 -3.00458,-0.93073 -2.33023,-2.14083 -18.59099,4.04152 -43.00178,8.72969 -8.89135,1.45494 -0.49567,-7.08389 -5.48753,5.63015 -1.29329,0.48498 -4.20229,3.00889 2.91076,19.13745 2.48166,9.72936 3.5718,19.26149 3.26931,-0.63768 11.94358,-1.50247 37.92663,-7.6652 14.87621,-2.82332 8.30035,-1.62236 0.26711,-0.23853 2.1016,-1.61662 2.10158,-0.68084 z"
         inkscape:connector-curvature="0" />
    </clipPath>
    <clipPath
       id="clipPathRI">
      <path
         id="pathRI"
         d="m -52.39419,207.55166 -0.48295,-4.2044 -0.8083,-4.36484 -1.69743,-5.90061 5.73895,-1.53578 1.6166,1.13162 3.39488,4.36484 2.90887,4.44629 -2.91095,1.5364 -1.29328,-0.16166 -1.13162,1.77827 -2.42491,1.93992 -2.90986,0.96995 z"
         inkscape:connector-curvature="0" />
    </clipPath>
    <clipPath
       id="clipPathSC">
      <path
         id="pathSC"
         d="m -95.5227,314.21726 -1.77706,0.9695 -2.58657,-1.29329 -0.64664,-2.10159 -1.29328,-3.55653 -2.26326,-2.1016 -2.58657,-0.64664 -1.6166,-4.84981 -2.74824,-5.98145 -4.20317,-1.93994 -2.1016,-1.93992 -1.29328,-2.58657 -2.10159,-1.93994 -2.26325,-1.29328 -2.26325,-2.90989 -3.07155,-2.26324 -4.52651,-1.77828 -0.48498,-1.45494 -2.4249,-2.90989 -0.48499,-1.45496 -3.39488,-5.17313 -3.39487,0.16166 -4.04152,-2.42492 -1.29328,-1.29328 -0.32332,-1.77827 0.8083,-1.93992 2.26325,-0.96998 -0.32332,-2.10158 6.1431,-2.58657 9.053,-4.5265 7.27473,-0.80831 16.4894,-0.48498 2.26325,1.93993 1.6166,3.23322 4.36485,-0.48498 12.60953,-1.45496 2.90989,0.80831 12.60954,7.59806 10.10808,8.12168 -5.42117,5.45834 -2.58657,6.1431 -0.48498,6.30476 -1.6166,0.8083 -1.13163,2.74823 -2.4249,0.64664 -2.10159,3.55653 -2.74823,2.74823 -2.26324,3.39487 -1.61661,0.8083 -3.55653,3.39487 -2.90989,0.16166 0.96997,3.23321 -5.01148,5.49646 -2.10159,1.29328 z"
         inkscape:connector-curvature="0" />
    </clipPath>
    <clipPath
       id="clipPathSD">
      <path
         id="pathSD"
         d="m -68.29574,286.54695 -0.9537,-1.08087 -1.52071,-3.62669 1.82898,-3.70192 1.05078,-5.55509 -2.58299,-2.05761 -0.29677,-2.74346 0.59353,-2.99629 2.14994,-0.80239 0.29677,-5.73534 -0.06814,-30.08586 -0.61773,-2.97209 -4.11521,-3.58981 -0.98263,-1.98946 0,-1.92132 1.89712,-1.2794 1.53222,-1.85317 0.18246,-2.71929 -57.38209,-1.60035 -56.17421,-3.88659 -0.7667,5.27936 -1.61301,15.86824 -1.34521,17.94687 -1.60035,24.59672 16.02777,1.0288 19.63735,1.14311 17.99305,1.30359 23.77676,1.30358 10.74526,-0.77819 2.85999,2.28623 4.31964,2.9721 0.98264,0.754 3.54144,-0.89031 4.04707,-0.29676 2.74347,-0.0682 3.1128,1.21127 4.54826,1.43988 3.13256,1.76083 0.61773,1.92131 0.91449,1.89713 0.70565,-0.48144 0.78172,-10e-4 z"
         inkscape:connector-curvature="0" />
    </clipPath>
    <clipPath
       id="clipPathTN">
      <path
         id="pathTN"
         d="m -48.07801,210.92928 -51.89309,5.01149 -15.75956,1.77826 -4.6212,0.51271 -3.86835,-0.0277 0,3.87986 -8.40635,0.48498 -6.95141,0.64664 -11.09603,0.0529 -0.26474,5.83543 -2.13817,6.27554 -0.99507,3.01601 -1.34874,4.38106 -0.32332,2.58657 -4.04152,2.26324 1.45494,3.55654 -0.96996,4.36484 -0.96838,0.78965 7.25604,-0.19431 24.08745,-1.93992 5.33485,-0.16167 8.08299,-0.48499 27.80565,-2.58656 10.17075,-0.80831 8.42022,-0.96996 8.40636,-1.13162 4.84982,-0.80831 -0.13058,-4.5094 1.77827,-1.45494 2.74823,-0.64664 0.64665,-3.7182 4.20318,-2.74823 3.87985,-1.45496 4.20318,-3.55653 4.36483,-2.10158 0.87359,-3.52546 4.33376,-3.87985 0.64665,-0.16166 c 0,0 0,1.13162 0.8083,1.13162 0.8083,0 1.93993,0.32332 1.93993,0.32332 l 2.26325,-3.55654 2.10159,-0.64664 2.26324,0.32332 1.61662,-3.55653 2.11556,-2.24616 0.59846,-0.96684 0.17637,-3.93212 -1.48363,-0.28816 -2.42491,1.93994 -7.92138,0.16166 -11.99533,1.90068 -9.82886,0.84754 z"
         inkscape:connector-curvature="0" />
    </clipPath>
    <clipPath
       id="clipPathTX">
      <path
         id="pathTX"
         d="m -187.18538,130.4641 22.69079,1.08594 31.09269,1.14312 -2.33461,23.4558 -0.29676,18.15352 0.0681,2.08179 4.34383,3.81843 1.73665,0.82216 1.80921,0.25281 0.68587,-1.25522 0.89032,0.86612 1.73664,0.48143 1.60477,-0.72982 1.1387,0.40887 -0.29677,3.40515 4.27569,1.03101 2.67532,0.82217 3.95474,0.52538 2.19388,1.82898 3.2491,-1.57617 2.78744,0.36491 2.03341,2.78744 1.07496,0.32096 -0.16047,1.96527 3.08861,1.16729 2.76765,-1.8048 1.50802,0.36492 2.35438,0.16048 0.43307,1.87294 4.64059,1.98945 2.65555,-0.20443 1.98947,-4.11521 0.34072,0 1.14312,1.89713 4.43616,1.00681 3.337,1.21127 3.29305,0.75402 2.14994,-0.75402 0.84634,-2.51484 3.70192,0 1.89713,0.754 3.06442,-1.57617 0.66169,0 0.36491,1.11893 4.27569,0 2.40275,-1.25522 1.6685,0.29676 1.4157,1.87295 2.87975,1.6685 3.52168,1.07497 2.74347,1.41791 2.4467,1.62232 3.29304,-0.89029 1.94109,0.98263 0.51111,10.13963 0.33524,9.70217 0.68586,9.53401 0.5254,4.04705 2.67533,4.59664 1.07496,4.06684 3.8624,6.28933 0.54957,2.87977 0.5254,1.00681 -0.68588,7.49619 -2.65113,4.38778 0.95845,2.85998 -0.36492,2.51485 -0.84634,7.31593 -1.37174,2.71929 0.60424,4.38623 -5.66488,1.58518 -9.86129,4.5265 -0.96996,1.93992 -2.58657,1.93993 -2.10158,1.45494 -1.29329,0.8083 -5.65811,5.3348 -2.74823,2.10159 -5.3348,3.2332 -5.65811,2.42491 -6.30476,3.39487 -1.77826,1.45495 -5.81978,3.55653 -3.39487,0.64664 -3.87985,5.49645 -4.04151,0.32333 -0.96997,1.93992 2.26325,1.93993 -1.45495,5.49645 -1.29328,4.5265 -1.13162,3.87985 -0.8083,4.52649 0.8083,2.42491 1.77826,6.9514 0.96997,6.14309 1.77826,2.74823 -0.96996,1.45495 -3.07155,1.93992 -5.65812,-3.87985 -5.49645,-1.13162 -1.29329,0.48498 -3.23321,-0.64664 -4.20317,-3.07155 -5.17313,-1.13162 -7.59805,-3.39487 -2.10158,-3.87986 -1.29329,-6.46641 -3.2332,-1.93993 -0.64665,-2.26325 0.64665,-0.64664 0.32332,-3.39487 -1.29329,-0.64664 -0.64664,-0.96996 1.29328,-4.36484 -1.6166,-2.26324 -3.23321,-1.29329 -3.39487,-4.36483 -3.55653,-6.62808 -4.20317,-2.58657 0.16166,-1.93992 -5.3348,-12.2862 -0.8083,-4.20317 -1.77826,-1.93992 -0.16166,-1.45495 -5.98144,-5.33479 -2.58657,-3.07155 0,-1.13163 -2.58657,-2.10158 -6.78974,-1.13163 -7.43638,-0.64664 -3.07155,-2.26324 -4.52649,1.77826 -3.55653,1.45495 -2.26325,3.2332 -0.96996,3.7182 -4.36483,6.14309 -2.42491,2.42491 -2.58657,-0.96996 -1.77826,-1.13163 -1.93993,-0.64664 -3.87985,-2.26324 0,-0.64665 -1.77826,-1.93992 -5.17314,-2.10159 -7.43638,-7.7597 -2.26325,-4.68815 0,-8.08303 -3.23321,-6.46642 -0.48498,-2.74822 -1.6166,-0.96997 -1.13163,-2.10158 -5.01147,-2.10159 -1.29328,-1.6166 -7.11307,-7.92137 -1.29328,-3.23321 -4.68816,-2.26325 -1.45495,-4.36487 -2.58659,-2.90987 -1.93991,-0.48496 -0.64923,-4.67764 8.00187,0.68589 29.03499,2.74345 29.03508,1.60036 2.28623,-23.77676 3.88655,-55.55502 1.60039,-18.74732 1.37174,0.0286 m 98.97665,233.97768 -0.56581,-7.11308 -2.74824,-7.19392 -0.56582,-7.03225 1.53578,-8.24471 3.31406,-6.87059 3.4757,-5.41565 3.1524,-3.55655 0.64664,0.2425 -4.769,6.6281 -4.36484,6.54728 -2.02077,6.62809 -0.32332,5.17316 0.88913,6.14312 2.58658,7.19392 0.48498,5.17314 0.16166,1.45496 -0.88913,0.24248 z"
         inkscape:connector-curvature="0" />
    </clipPath>
    <clipPath
       id="clipPathUT">
      <path
         id="pathUT"
         d="m -89.93127,298.29638 -24.64287,-3.4733 -26.56419,-4.8934 -33.82674,-6.01995 1.5887,-9.15697 3.20071,-15.20339 3.31503,-16.57514 2.17192,-13.60304 1.94329,-8.91628 3.77227,-20.46173 3.54365,-17.48962 1.11454,-5.57268 12.71712,2.25765 12.00269,2.0576 10.28801,1.82899 8.34472,1.37174 3.67777,0.47916 -1.4848,10.63042 -2.31162,13.17266 7.80769,0.92837 16.40652,1.80479 8.21097,0.85564 -2.13048,21.96856 -3.20071,22.5655 -3.75267,27.82618 -1.66614,11.1078 -0.52538,2.51044 z"
         inkscape:connector-curvature="0" />
    </clipPath>
    <clipPath
       id="clipPathVT">
      <path
         id="pathVT"
         d="m -167.54245,278.89003 -0.8083,-5.65813 -2.39071,-9.97167 -0.64664,-0.32332 -2.9099,-1.29329 0.8083,-2.90989 -0.8083,-2.10159 -2.70005,-4.63998 0.96997,-3.87986 -0.80831,-5.17315 -2.42491,-6.46644 -0.80557,-4.92251 26.24748,-6.74744 0.32433,5.81908 1.93993,2.74824 0,4.04152 -3.7182,4.04152 -2.58657,1.13163 0,1.13162 1.13162,1.77827 0,8.56802 -0.8083,9.21467 -0.16166,4.84983 0.96996,1.29329 -0.16166,4.52649 -0.48498,1.77828 0.66062,1.56685 -6.95141,1.37413 -3.87674,0.22383 z"
         inkscape:connector-curvature="0" />
    </clipPath>
    <clipPath
       id="clipPathVA">
      <path
         id="pathVA"
         d="m -28.05284,237.21379 -0.14391,-1.94703 6.45343,-2.54988 -0.77041,3.21784 -2.91995,3.77911 -0.41809,4.58582 0.46175,3.39044 -1.82797,4.97816 -2.16427,1.91614 -1.47034,-4.64081 0.44589,-5.44911 1.587,-4.18307 0.76687,-3.09761 z m 2.27953,28.30136 -58.17418,12.57543 -37.42697,5.27907 -6.67833,-0.37518 -2.58525,1.92638 -7.33913,0.22069 -8.38211,0.97767 -8.92622,0.95171 8.48069,-4.94829 -0.0131,-2.07493 1.52005,-2.14613 10.55378,-11.50143 3.94672,4.47746 3.78301,0.96398 2.54346,-1.14032 2.23722,-1.31116 2.53661,1.34352 3.91417,-1.42776 1.87673,-4.55634 2.60092,0.54002 2.85524,-2.13125 1.79927,0.4936 2.82721,-3.67657 0.34825,-2.08311 -0.96366,-1.27557 1.00277,-1.86663 5.27427,-12.27715 0.61677,-5.73508 1.22889,-0.52354 2.17853,2.44287 3.93586,-0.30117 1.92921,-7.57363 2.79399,-0.56086 1.04975,-2.74107 2.57982,-2.34688 1.26797,-2.34221 1.50386,-3.35298 0.08493,-5.06755 9.82151,3.82282 c 0.68085,0.34042 0.6561,-4.78398 0.6561,-4.78398 l 4.05031,1.37735 -0.462,2.6288 8.15611,2.93966 1.29287,1.79439 -0.86794,3.68214 -1.26308,1.32582 -0.50592,1.74604 0.49391,2.40272 1.95898,1.27838 3.91809,1.44521 2.94867,0.96796 4.85647,0.94211 2.15231,2.08846 3.19044,0.40253 0.86807,1.20002 -0.43949,4.69008 1.37473,1.10255 -0.47895,1.93039 1.22941,0.78977 -0.2218,1.3846 -2.69399,-0.0949 0.08896,1.61552 2.28099,1.54287 0.12154,1.4119 1.77311,1.78538 0.49179,2.52413 -2.55304,1.38131 1.57222,1.4943 5.80102,-1.68583 3.60762,6.01193 z"
         inkscape:connector-curvature="0" />
    </clipPath>
    <clipPath
       id="clipPathWA">
      <path
         id="pathWA"
         d="m -174.31016,203.85247 4.36483,1.45495 9.69963,2.74823 8.568,1.93992 20.0459,5.65812 22.95579,5.65811 15.16062,3.39468 -1.00428,3.88405 -4.09322,13.80967 -4.45813,20.80466 -3.17654,16.13988 -0.35155,9.37877 -13.18114,-3.89404 -15.57051,-3.38318 -13.66679,0.59574 -1.58057,-1.5322 -5.32647,1.89712 -3.97671,-0.25061 -2.7215,-1.76083 -1.57837,0.5254 -4.20533,-0.22863 -1.87515,-1.37173 -4.77689,-1.73666 -1.44208,-0.20663 -4.98574,-1.32558 -1.78282,1.50802 -5.69138,-0.34292 -4.82084,-3.79425 0.20443,-0.80018 0.0681,-7.93365 -2.12574,-3.88658 -4.11521,-0.73204 -0.36491,-2.35437 -2.51441,-0.62704 -2.88154,-0.53488 -1.77826,0.96996 -2.26325,-2.90989 0.32332,-2.90989 2.74823,-0.32332 1.61661,-4.04151 -2.58657,-1.13162 0.16166,-3.71819 4.36483,-0.64665 -2.74823,-2.74822 -1.45494,-7.11306 0.64664,-2.90989 0,-7.92137 -1.77826,-3.23321 2.26324,-9.3763 2.10159,0.48498 2.42491,2.90989 2.74822,2.58656 3.23321,1.93993 4.5265,2.10159 3.07155,0.64664 2.90988,1.45494 3.39488,0.96997 2.26324,-0.16166 0,-2.42491 1.29329,-1.13163 2.10158,-1.29328 0.32333,1.13162 0.32332,1.77827 -2.26325,0.48498 -0.32332,2.10159 1.77826,1.45494 1.13163,2.42491 0.64664,1.93992 1.45494,-0.16166 0.16166,-1.29328 -0.96996,-1.29328 -0.48498,-3.23321 0.8083,-1.77827 -0.64664,-1.45494 0,-2.26325 1.77826,-3.55653 -1.13162,-2.58657 -2.42491,-4.84981 0.32333,-0.8083 1.13162,-0.80831 z m -9.45669,5.97897 2.02076,-0.16166 0.48498,1.37412 1.53578,-1.61662 2.34409,0 0.8083,1.53578 -1.53578,1.69744 0.64665,0.80831 -0.72748,2.02077 -1.37412,0.40414 c 0,0 -0.88913,0.0808 -0.88913,-0.24248 0,-0.32332 1.45495,-2.58658 1.45495,-2.58658 l -1.69744,-0.56582 -0.32332,1.45496 -0.72748,0.64664 -1.53578,-2.26326 -0.48498,-2.50574 z"
         inkscape:connector-curvature="0" />
    </clipPath>
    <clipPath
       id="clipPathWV">
      <path
         id="pathWV"
         d="m -146.62831,242.86819 1.11201,4.94453 1.08344,6.90633 3.55967,-2.74823 2.26324,-3.07156 2.53838,-0.61555 1.45495,-1.45494 1.77827,-2.58657 1.17981,0.64664 2.90989,-0.32332 2.58658,-2.10159 2.00689,-1.45326 1.84523,-0.48499 1.30392,1.01647 2.22904,1.11452 1.93993,1.77827 1.37412,1.29328 -0.143,4.67106 -5.65813,-3.07155 -4.5265,-1.77827 -0.16166,5.33481 -0.48498,2.10158 -1.6166,2.74824 -0.64666,1.61661 -3.07155,2.4249 -0.48498,2.26326 -3.39488,0.32332 -0.32332,3.07155 -1.13162,5.49647 -2.58657,0 -1.29328,-0.80831 -1.61662,-2.74824 -1.77826,0.16166 -0.32332,4.36485 -2.10159,6.62809 -5.01148,10.83127 0.8083,1.29328 -0.16166,2.74823 -2.10159,1.93993 -1.45494,-0.32332 -3.23322,2.42491 -2.58657,-0.96996 -1.77826,4.68815 c 0,0 -3.71821,0.80831 -4.36485,0.96997 -0.64664,0.16166 -2.42491,-1.29329 -2.42491,-1.29329 l -2.42491,2.26325 -2.58657,0.64665 -2.9099,-0.80831 -1.29328,-1.29328 -2.19222,-3.02336 -3.14259,-1.98812 -2.58657,-2.74824 -2.90988,-3.71819 -0.64665,-2.26325 -2.58657,-1.45495 -0.80831,-1.6166 -0.24249,-5.25398 2.18242,-0.0808 1.93994,-0.8083 0.16166,-2.74823 1.6166,-1.45495 0.16166,-5.01148 0.96996,-3.87986 1.29329,-0.64664 1.29328,1.13162 0.48499,1.77827 1.77827,-0.96997 0.48498,-1.6166 -1.13162,-1.77827 0,-2.42491 0.96996,-1.29329 2.26325,-3.39487 1.29328,-1.45494 2.1016,0.48498 2.26324,-1.61662 3.07155,-3.39487 2.26326,-3.87986 0.32332,-5.65811 0.48498,-5.01149 0,-4.68816 -1.13162,-3.07155 0.96996,-1.45496 1.28348,-1.29328 3.49125,19.82712 4.63101,-0.75115 11.30332,-1.54965 z"
         inkscape:connector-curvature="0" />
    </clipPath>
    <clipPath
       id="clipPathWI">
      <path
         id="pathWI"
         d="m -46.37161,283.56168 0.37076,-2.96992 -1.61661,-4.52651 -0.64664,-6.14308 -1.13162,-2.42492 0.96996,-3.07155 0.8083,-2.90989 1.45495,-2.58655 -0.64665,-3.39487 -0.64664,-3.55653 0.48498,-1.77827 1.93993,-2.42491 0.16166,-2.74824 -0.8083,-1.29327 0.64664,-2.58658 0.48498,-3.2332 2.74823,-5.65811 2.90989,-6.78975 0.16166,-2.26325 -0.32332,-0.96995 -0.80831,0.48498 -4.20317,6.30475 -2.74823,4.04152 -1.93992,1.77827 -0.8083,2.26324 -1.45495,0.8083 -1.13162,1.93993 -1.45495,-0.32332 -0.16166,-1.77828 1.29329,-2.42489 2.10158,-4.68816 1.77827,-1.61661 1.10132,-2.29156 -1.63066,-0.90525 -1.37174,-1.37173 -1.60036,-10.28802 -3.65795,-1.14312 -1.37174,-2.28623 -12.57425,-2.74347 -2.51485,-1.1431 -8.23041,-2.28624 -8.23042,-1.14311 -4.16946,-5.40481 -0.52943,1.26112 -1.13162,-0.16167 -0.64665,-1.13162 -2.74822,-0.80829 -1.13163,0.16165 -1.77826,0.96997 -0.96997,-0.64664 0.64665,-1.93993 1.93992,-3.07155 1.13162,-1.13162 -1.93992,-1.45495 -2.10159,0.80831 -2.90989,1.93991 -7.43638,3.23321 -2.90989,0.64665 -2.90988,-0.48498 -0.98173,-0.87826 -2.1167,2.83519 -0.22862,2.74347 0,8.45903 -1.14312,1.60037 -5.25832,3.88657 -2.28622,5.94419 0.45724,0.22862 2.51485,2.0576 0.68586,3.20073 -1.82898,3.2007 0,3.8866 0.45725,6.63004 2.97209,2.97211 3.42935,0 1.82898,3.20071 3.42933,0.45725 3.88659,5.71556 7.0873,4.11522 2.0576,2.74347 0.9145,7.43024 0.68586,3.31502 2.28623,1.60036 0.22862,1.37173 -2.0576,3.42933 0.22862,3.20074 2.51485,3.88657 2.51485,1.14312 2.97209,0.45723 1.34234,1.38013 9.1735,-2e-5 26.06713,-1.48687 10.05773,-1.37006 z"
         inkscape:connector-curvature="0" />
    </clipPath>
    <clipPath
       id="clipPathWY">
      <path
         id="pathWY"
         d="m -74.69262,235.49737 -10.54915,-0.80703 -32.08799,-3.29542 -16.23221,-2.0576 -28.34921,-4.11521 -19.89016,-2.97209 -1.41909,11.17596 -3.83923,24.26054 -5.25833,30.40681 -1.531,10.51618 -1.66971,11.88883 6.52387,0.92837 25.87936,2.49992 20.56912,2.307 36.78372,4.11518 23.82104,2.86002 4.50431,-44.19233 1.43987,-25.37711 1.30479,-18.14202 z"
         inkscape:connector-curvature="0" />
    </clipPath>
    <clipPath
       id="clipPathPR">
      <path
         id="pathPR"
         d="m -141.88158,256.34586 c 0,0 0.85786,-2.14162 0.85786,-2.14162 0,0 1.7133,0.42833 1.7133,0.42833 0,0 1.71331,1.28498 1.71331,1.28498 0,0 7.28394,0.85664 7.28394,0.85664 0,0 7.28395,-0.42833 7.28395,-0.42833 0,0 2.99948,0 2.99948,0 0,0 2.56996,0.85666 2.56996,0.85666 0,0 1.71451,-1.28497 1.71451,-1.28497 0,0 2.14163,0 2.14163,0 0,0 5.14111,0.42831 5.14111,0.42831 0,0 5.14111,1.28499 5.14111,1.28499 0,0 1.71451,1.7145 1.71451,1.7145 0,0 2.998292,0 2.998292,0 0,0 0.42832,2.57116 0.42832,2.57116 0,0 -0.42832,1.71331 -0.42832,1.71331 0,0 -3.426602,0.42833 -3.426602,0.42833 0,0 -2.14284,0.85666 -2.14284,0.85666 0,0 -0.85785,2.14162 -0.85785,2.14162 0,0 -1.28499,2.14282 -1.28499,2.14282 0,0 -2.56995,1.28499 -2.56995,1.28499 0,0 -5.14233,0 -5.14233,0 0,0 -4.28324,0 -4.28324,0 0,0 -2.14163,-0.85665 -2.14163,-0.85665 0,0 0,0 0,0 0,0 -4.28447,0 -4.28447,0 0,0 -2.14283,-0.85666 -2.14283,-0.85666 0,0 -3.42782,0.85666 -3.42782,0.85666 0,0 -4.28446,0 -4.28446,0 0,0 -2.14163,-1.71331 -2.14163,-1.71331 0,0 -2.57116,0.85665 -2.57116,0.85665 0,0 -3.42781,0.42832 -3.42781,0.42832 0,0 -0.42834,-2.14282 -0.42834,-2.14282 0,0 0.85667,-1.28498 0.85667,-1.28498 0,0 0.85665,-2.14163 0.85665,-2.14163 0,0 -0.85665,-2.57116 -0.85665,-2.57116 0,0 -3.4266,-2.57115 -3.4266,-2.57115 0,0 1.28497,-0.85666 1.28497,-0.85666 0,0 2.56995,-1.28499 2.56995,-1.28499 z m 46.711672,11.57448 c 0,0 -1.8585,0.6195 -1.8585,0.6195 0,0 3.71699,1.23899 3.71699,1.23899 0,0 4.95599,-1.23899 4.95599,-1.23899 0,0 1.239,-1.85849 1.239,-1.85849 0,0 -3.09749,0.61949 -3.09749,0.61949 0,0 -4.95599,0.6195 -4.95599,0.6195 z m 8.67297,-4.3365 c 0,0 -1.54874,-0.92925 -1.54874,-0.92925 0,0 2.16824,-1.54873 2.16824,-1.54873 0,0 0.6195,1.54873 0.6195,1.54873 0,0 -1.239,0.92925 -1.239,0.92925 z"
         inkscape:connector-curvature="0" />
    </clipPath>
    <clipPath
       id="clipPathVI">
      <path
         id="pathVI"
         d="m -138.41047,250.82853 c 0,0 -1.45921,1.09501 -1.45921,1.09501 0,0 -1.82342,1.09259 -1.82342,1.09259 0,0 0.36421,1.45921 0.36421,1.45921 0,0 1.82341,0.7284 1.82341,0.7284 0,0 2.55422,-0.3642 2.55422,-0.3642 0,0 1.0926,1.82462 1.0926,1.82462 0,0 1.8234,0 1.8234,0 0,0 1.0938,-1.09381 1.0938,-1.09381 0,0 4.01222,-0.73081 4.01222,-0.73081 0,0 1.82219,-0.3642 1.82219,-0.3642 0,0 1.46044,-1.09502 1.46044,-1.09502 0,0 -0.72961,-1.45678 -0.72961,-1.45678 0,0 -2.18761,0 -2.18761,0 0,0 -5.10723,-1.09501 -5.10723,-1.09501 0,0 -4.73941,0 -4.73941,0 z m 14.45175,1.40112 c 0,0 -0.28435,0.99217 -0.28435,0.99217 0,0 0.85302,0.49729 0.85302,0.49729 0,0 1.99401,-0.24804 1.99401,-0.24804 0,0 1.42413,0.74534 1.42413,0.74534 0,0 1.13857,-0.24926 1.13857,-0.24926 0,0 0.28556,-1.24263 0.28556,-1.24263 0,0 0,0 0,0 0,0 1.4229,-0.99216 1.4229,-0.99216 0,0 0.28554,-0.99338 0.28554,-0.99338 0,0 -1.13977,-0.49608 -1.13977,-0.49608 0,0 -1.70845,0.49608 -1.70845,0.49608 0,0 -1.99402,-0.7429 -1.99402,-0.7429 0,0 -0.85303,0.7429 -0.85303,0.7429 0,0 -0.28554,0.99338 -0.28554,0.99338 0,0 -1.13857,0.49729 -1.13857,0.49729 z m -5.30446,20.41927 c 0,0 2.60626,-0.65218 2.60626,-0.65218 0,0 1.62981,0.32669 1.62981,0.32669 0,0 2.27956,-1.30311 2.27956,-1.30311 0,0 0.97885,0.32547 0.97885,0.32547 0,0 0.64974,0.97764 0.64974,0.97764 0,0 0.97765,1.62983 0.97765,1.62983 0,0 1.95408,-0.97766 1.95408,-0.97766 0,0 0.97765,0.65096 0.97765,0.65096 0,0 4.27116,-0.58805 4.27116,-0.58805 0,0 0.48519,2.42839 0.48519,2.42839 0,0 -1.82342,0.7647 -1.82342,0.7647 0,0 -3.25719,0 -3.25719,0 0,0 -5.53921,1.62982 -5.53921,1.62982 0,0 -2.27955,-0.32428 -2.27955,-0.32428 0,0 -3.91058,0.64977 -3.91058,0.64977 0,0 -1.30191,-0.64977 -1.30191,-0.64977 0,0 -0.97765,0.64977 -0.97765,0.64977 0,0 -2.60748,0.32787 -2.60748,0.32787 0,0 -1.53785,-0.49727 -0.32546,-1.30554 1.95407,-1.30191 0.97764,-3.58268 0.97764,-3.58268 0,0 4.23486,-0.97764 4.23486,-0.97764 z"
         inkscape:connector-curvature="0" />
    </clipPath>
    <clipPath
       id="clipPathGU">
      <path
         id="pathGU"
         d="m -112.812,194.71509 c 0.042,0 0.084,0 0.12593,0 0.42807,0 0.83952,0.13993 1.25929,0.20992 0.55115,0.0919 0.79604,0.75155 1.25929,0.94461 0.49479,0.20618 0.63807,0.63673 1.00743,0.94459 0.10767,0.0897 0.21639,0.27054 0.25186,0.31487 0.72391,0.60333 -0.75512,1.18066 0.88151,0.83965 0.0369,-0.008 1.29626,0.48 1.51115,0.52477 0.61874,0.12892 1.28706,0.11074 1.763,0.20992 0.60127,0.12528 -0.60434,0.9024 -0.8815,1.36441 -0.26124,0.43547 -0.12593,1.08774 -0.12593,1.57436 0,0.61335 -0.13293,0.96792 -0.25185,1.3644 -0.14359,0.47871 -0.45795,0.8015 -0.75559,1.04957 -0.31407,0.26176 -0.90133,0.52891 -1.38522,0.62974 -0.64523,0.13444 -0.59373,0.52477 -1.51115,0.52477 -0.43869,0 -0.49834,1.04062 -0.62965,1.25947 -0.38308,0.63858 -1.13445,0.004 -1.38522,0.83966 -0.16276,0.54263 -0.49774,0.5198 -0.8815,0.83964 -0.3608,0.30072 -0.90349,0.48146 -1.25929,0.62972 -0.609,0.2538 -0.98691,0.52478 -1.763,0.52478 -0.30796,0 -0.89665,0.92645 -1.00744,1.04957 -0.36885,0.40988 -0.54136,0.66109 -0.88151,0.9446 -0.15031,0.12527 -1.18899,-0.0934 -1.63708,0 -0.0654,0.0136 0,1.43217 0,1.57433 0,0.24705 -0.82199,0.63551 -0.8815,0.7347 -0.11483,0.1914 0.25186,1.24305 0.25186,1.57434 0,0.51583 -0.0171,1.10661 -0.12593,1.46937 -0.14443,0.48151 -0.1239,1.04956 -0.75558,1.04956 -0.66065,0 0.36504,0.82902 0.50371,0.9446 0.22022,0.18354 0.1753,1.10921 0.25187,1.36444 0.20607,0.68702 -0.37779,0.92513 -0.37779,1.46937 0,0.0345 -1.0152,0.5805 -1.13337,0.62974 -0.36129,0.15056 -0.69479,0.57908 -1.00743,0.83964 -0.4817,0.40148 -0.58356,0.59135 -1.00743,0.94461 -0.41367,0.34477 -0.999,0.31346 -1.63708,0.41982 -0.58414,0.0974 -1.07623,0.20992 -1.763,0.20992 -0.38539,0 -0.89248,-0.63888 -1.13337,-0.83965 -0.5442,-0.45356 -0.71228,0.24932 -1.00743,-0.7347 -0.0281,-0.0935 -0.40858,-0.83728 -0.50372,-1.1545 -0.17017,-0.56729 -0.12335,-0.93598 -0.25187,-1.36443 -0.11211,-0.37378 -0.49037,-0.58529 -0.62964,-1.04956 -0.16095,-0.53657 -0.0822,-1.08166 -0.37779,-1.57433 -0.3032,-0.50542 -0.8815,-0.30939 -0.8815,-1.15453 0,-0.71947 0.34142,-0.77902 0.62964,-1.25947 0.19749,-0.32918 0.39936,-0.91154 0.50372,-1.25946 0.105,-0.35007 0.55389,-0.92329 0.75557,-1.25948 0.05,-0.0833 -0.12593,-0.42746 -0.12593,-0.62972 l -3.14822,-2.41399 c 0.55538,-0.92576 0.68978,-0.59214 1.63707,0 0.51572,0.32237 0.93349,0.33028 1.51115,0.20991 0.47524,-0.099 0.44732,-1.26009 0.44732,-0.26849 0,0.73175 -0.16691,-0.11058 0.50771,-0.31486 1.16384,-0.35242 1.05322,-0.28824 0.0524,0.26847 -0.22443,0.12484 1.05404,0.47024 0.75557,-0.52477 -0.15647,-0.52166 -1.01151,0.0136 -0.75557,-0.83965 0.094,-0.31348 1.91923,0.085 2.01488,0.10496 0.54635,0.11384 0.94797,-0.62973 1.51114,-0.62973 0.5474,0 1.23325,-0.20992 1.88894,-0.20992 0.48563,0 1.37721,-0.23447 1.76301,-0.31485 0.77572,-0.16164 1.11911,-0.20101 1.63708,-0.5248 0.35558,-0.22226 -0.22022,-1.3639 -0.25186,-1.46937 -0.16327,-0.5443 1.74355,-0.003 1.76301,0 0.81311,0.13554 0.90466,-0.70694 1.00743,-1.04956 0.20399,-0.68005 0.31162,-0.86455 1.00743,-1.15452 0.77053,-0.32109 1.00744,-0.81223 1.00744,-1.46936 0,-0.98427 0.43543,-1.28979 0.62965,-2.09913 0.14732,-0.61395 -0.14417,-0.7844 0.37777,-1.36443 0.55086,-0.61213 0.94497,-0.84045 1.25931,-1.36442 0.28338,-0.47239 0.25186,-0.86941 0.25186,-1.46939 0,-0.55319 0.15574,-0.60489 -0.3778,-1.04956"
         inkscape:connector-curvature="0" />
    </clipPath>
    <clipPath
       id="clipPathMP">
      <path
         id="pathMP"
         d="m -145.92978,214.54313 c 0,0 1.07492,-0.72027 1.07492,-0.72027 0,0 0.90069,-0.59787 0.90069,-0.59787 0,0 -1.97561,1.31814 -1.97561,1.31814 z m 0.08,5.55806 c 0,0 1.97717,1.97718 1.97717,1.97718 0,0 -0.17573,-1.87205 -0.17573,-1.87205 0,0 -1.80144,-0.10513 -1.80144,-0.10513 z m 4.61029,5.92999 c 0,0 1.31813,3.29374 1.31813,3.29374 0,0 0,0 0,0 0,0 1.31811,-3.29374 1.31811,-3.29374 0,0 -2.63624,0 -2.63624,0 z m 5.27092,6.58746 c 0,0 0,3.29375 0,3.29375 0,0 1.97561,0.65904 1.97561,0.65904 0,0 0.65906,-3.29372 0.65906,-3.29372 0,0 -2.63467,-0.65907 -2.63467,-0.65907 z m 8.64626,8.44069 c 0,0 -1.72926,3.08659 -1.72926,3.08659 0,0 0.57589,1.85322 0.57589,1.85322 0,0 2.88261,1.23497 2.88261,1.23497 0,0 1.15334,-1.85323 1.15334,-1.85323 0,0 0,-3.08817 0,-3.08817 0,0 -2.88258,-1.23338 -2.88258,-1.23338 z"
         inkscape:connector-curvature="0" />
    </clipPath>
    <clipPath
       id="clipPathAS">
      <path
         id="pathAS"
         d="m -110.00327,245.91393 c 0.22425,-0.10209 0.54928,-0.64479 0.70247,-0.92368 0.25889,-0.47136 -0.2506,-0.56468 0.39025,-0.71053 0.31813,-0.0724 0.67901,0.40496 0.78052,0.49737 0.24836,0.22608 0.40894,0.42932 0.54636,-0.0711 0.0558,-0.20323 0.70608,-0.90839 0.93662,-1.06578 0.30636,-0.20917 0.56067,-0.22619 0.85857,-0.49737 0.24868,-0.22637 0.47686,-0.4341 0.70247,-0.63948 0.28194,-0.25666 0.43108,-0.35852 0.62442,-0.71053 0.18031,-0.32832 0.43784,-0.54069 0.62441,-0.71053 0.41691,-0.37952 -1.02172,-0.21315 -1.63909,-0.21315 -0.16191,0 0.28058,-0.63761 0.31222,-0.78158 0.0942,-0.42897 0.21369,-0.40389 0.6244,-0.49736 0.58654,-0.13349 0.62441,0.13474 0.62441,0.56842 0,0.2891 0.46935,-0.43007 0.54637,-0.71053 0.10692,-0.38929 0.36499,-0.55692 0.70246,-0.71053 0.33169,-0.15098 0.69927,-0.24723 0.93662,-0.35527 0.41457,-0.18869 0.40475,-0.16039 0.31221,-0.49736 -0.057,-0.2075 0.0582,-0.6407 0,-0.85264 -0.124,-0.45154 0.5034,-0.0782 0.23416,-0.56842 -0.11682,-0.21269 -0.8008,-0.36449 -0.93663,-0.42632 -0.39009,-0.17756 -0.74074,-0.12399 -1.09271,-0.2842 -0.42102,-0.19164 -0.3434,-0.32688 -0.0781,-0.56842 0.14891,-0.13556 0.96675,0.0424 1.09272,0.071 0.37091,0.0844 0.76521,0.0711 1.17079,0.0711 0.52364,0 0.81928,0.0177 1.248806,0.21317 0.32284,0.14693 0.23416,0.43222 0.23416,0.85262 0,0.46342 -0.13714,0.67932 0.31221,0.78158 0.54652,0.12438 0.65929,0.0295 1.01467,-0.21316 0.14523,-0.0992 1.14261,-0.19381 1.24883,-0.21315 0.42081,-0.0766 0.6595,-0.24511 0.85858,-0.42632 0.28411,-0.25864 0.66149,-0.46008 0.85856,-0.63948 0.29201,-0.26581 0.56632,-0.34204 0.93662,-0.42632 0.4758,-0.10828 0.67177,0.18522 0.85857,0.35527 0.18883,0.17192 0.0781,0.74863 0.0781,0.99473 0,0.2207 1.42883,-0.33061 1.48297,-0.35526 0.41789,-0.19019 0.677,-0.11892 0.93663,-0.35525 0.36441,-0.33174 0.12028,-0.55882 0.70246,-0.42632 0.44349,0.10093 0.71346,-0.12685 1.09273,-0.21317 0.41038,-0.0934 0.3122,-0.34144 0.3122,-0.78157 0,-0.35526 0,-0.71053 0,-1.06578 0,-0.502 -0.31313,-0.40877 -0.70246,-0.49738 -0.32119,-0.0731 -0.76534,0.12828 -0.93662,0.2842 -0.33478,0.30476 -0.42383,0.19332 -0.54637,0.63949 -0.11462,0.41738 -0.16365,0.46527 -0.54636,0.63947 -0.18398,0.0837 -0.52581,-0.35526 -0.93662,-0.35526 -0.44271,0 -0.61307,-0.24353 -0.85856,-0.35527 -0.34429,-0.1567 -0.61339,-0.21315 -1.09272,-0.21315 -0.17386,0 -0.42954,0.41749 -0.78053,0.49736 -0.31551,0.0718 -0.91244,0 -1.01467,0 -0.32137,0 0.37268,-0.77356 0.39026,-0.78158 0.43187,-0.19657 0.96456,0.0386 0.078,-0.28421 -0.3461,-0.12603 -0.82614,0.0711 -1.17077,0.0711 -0.56858,0 -0.62441,0.0769 -0.62441,0.56842 0,0.48426 -0.29031,0.42631 -0.78051,0.42631 -0.30342,0 -0.17397,-0.64353 -0.46831,-0.71053 -0.48519,-0.11041 -0.44098,0.31271 -0.62444,-0.35526 -0.0719,-0.26197 -0.648786,0.0222 -0.858536,0.21315 -0.23025,0.2096 -0.74201,-0.0798 -0.15611,-0.21315 0.501466,-0.11412 -0.24778,-0.56842 -0.54636,-0.56842 -0.52099,0 -0.43993,0.32079 -0.70248,0.63948 -0.26081,0.31656 -0.6459,0.0782 -0.78051,0.56842 -0.0682,0.24833 -0.60304,0.31001 -0.85857,0.42631 -0.38871,0.17694 -0.68303,0.34642 -1.01467,0.49738 -0.48503,0.22076 -1.08171,0.14209 -1.63908,0.14209 -0.2909,0 0.15609,0.51678 0.15609,0.78159 0,0.35526 0,0.71053 0,1.06579 0,0.57816 -0.0831,0.44521 -0.6244,0.56842 -0.29295,0.0667 -0.51511,-0.28421 -0.93664,-0.28421 -0.51399,0 -0.62441,0.22337 -0.62441,0.63948 0,0.45517 -0.43034,0.19587 -0.7805,0.35525 -0.43004,0.19575 -0.78053,0.28637 -0.78053,-0.21316 0,-0.37654 -0.43393,-0.41848 -0.78052,-0.49736 -0.50655,-0.11529 -0.51601,0.34145 -0.85856,0.49736 -0.38568,0.17555 -0.79993,0.11542 -1.17078,0.28422 -0.10143,0.0462 -0.31472,-0.5157 -0.54637,-0.56843 -0.40098,-0.0912 -0.95115,0.0566 -1.32687,0.14212 -0.45223,0.10291 -0.22339,0.42631 -0.78052,0.42631 -0.42436,0 -0.78711,0.10958 -1.01467,0.21316 -0.21162,0.0963 0.35051,0.42631 -0.54636,0.42631 -0.57287,0 -0.65442,0.0546 -0.85858,0.42631 -0.23147,0.42142 -0.0459,0.5611 -0.70246,0.71053 -0.1976,0.045 -0.57436,0.45719 -0.62441,0.63947 -0.0829,0.3019 -1.04481,0.2596 -0.31221,0.42633 0.39379,0.0896 0.73228,0.11337 1.17078,0.21316 0.37779,0.086 0.84377,0.24195 1.09272,0.35526 0.25761,0.11725 0.94186,-0.0367 1.09272,-0.0711 0.38659,-0.088 0.36102,-0.22646 0.85857,0 0.30224,0.13757 0.25606,0.50734 0.54636,0.63948 0.27617,0.1257 1.10584,0.0711 1.40493,0.0711 0.0723,0 0.13265,0.90927 0.15611,0.99473 0.0574,0.20893 0.1556,0.6376 0.23416,0.92369 0.0248,0.0903 0.74942,0.39801 0.85857,0.49735 0.21652,0.19712 0.50548,0.29268 0.78051,0.35527 0.44771,0.10189 0.62656,0.073 0.85857,0.28422 0.23987,0.21835 -0.0479,0.63696 0.0781,0.92368 z"
         inkscape:connector-curvature="0" />
    </clipPath>
    <clipPath
       id="clipPathDC">
      <path
         id="pathDC-land"
         d="m 801.75695,253.84384 -1.07703,-1.63667 -1.01388,-0.84254 1.09926,-1.61622 2.23284,1.511 -1.24119,2.58443 z"
         inkscape:connector-curvature="0" />
    </clipPath>
  </defs>
  <path
     inkscape:connector-curvature="0"
     style="fill:#000000;fill-rule:evenodd;stroke:none"
     d="m 81.12537,27.236363 14.7,-7.09475 c 0.935,-0.31363 1.9775,-0.0976 2.71,0.56162 1.28375,1.15113 1.2175,3.17738 -0.165,4.21988 l -13.09625,6.47275 -4.14875,-4.1595 z"
     id="path19" />
  <path
     inkscape:connector-curvature="0"
     style="fill:#000000;fill-rule:evenodd;stroke:none"
     d="m 77.3047,43.374603 0,4.6525 c -4.5752,6.43125 -9.53743,14.79624 -12.17678,21.82249 -2.20102,5.854997 -3.72364,11.828747 -4.5145,17.889997 -2.10279,-0.2825 -4.26483,-0.42875 -6.46905,-0.42875 -6.71232,0 -13.030102,1.3475 -18.51325,3.77625 l 51.38658,41.42625 c 3.37685,-4.47125 5.64672,-11.67125 5.64672,-17.2225 l 76.32095,-0.0138 -7.34473,-5.75875 -53.15104,-0.004 c -8.48046,0.0162 -17.74044,-8.91375 -17.74683,-17.57 l -0.0831,-38.097487 -13.35501,-10.4725 z"
     id="path21" />
  <path
     inkscape:connector-curvature="0"
     style="fill:#000000;fill-rule:evenodd;stroke:none"
     d="m 134.58787,80.85584 0,-24.144987 75.9025,0 0.0875,0 1.955,2.25624 4.46375,7.2 2.77625,6.592497 2.38875,7.595 1.215,6.02375 0.8275,6.42 0.78125,8.67375 0.0962,5.89875 5.78375,-0.0162 0,5.63 -5.76875,0.001 0,2.295 -56.14875,0.0125 -34.36,-34.4375 z"
     id="path23" />
  <path
     inkscape:connector-curvature="0"
     style="fill:#000000;fill-rule:evenodd;stroke:none"
     d="m 136.55037,42.414603 c -1.04125,0 -1.95625,0.91375 -1.95625,1.955 l 0,6.38 70.01,0 -1.695,-1.82125 -3.85625,-3.345 -2.51625,-1.69375 -2.515,-1.04125 -2.47625,-0.38625 -0.12625,0 -54.86875,-0.0475 z"
     id="path25" />
  <path
     inkscape:connector-curvature="0"
     style="fill:#000000;fill-rule:evenodd;stroke:none"
     d="m 71.01287,134.39209 -9.58837,-9.58875 c -1.73463,6.15875 -7.41213,10.75625 -14.13938,10.75625 -8.06762,0 -14.65937,-6.5925 -14.65937,-14.66 0,-7.02625 5.0305,-12.9725 11.66262,-14.36 L 34.66062,96.95834 C 26.15837,101.59584 20,110.57709 20,120.89959 c 0,15.05375 12.23025,27.285 27.28512,27.285 10.149,0 18.99663,-5.55125 23.72775,-13.7925 z"
     id="path29" />
  <path
     inkscape:connector-curvature="0"
     style="fill:#000000;fill-rule:evenodd;stroke:none"
     d="m 53.05175,55.279603 c 6.11938,0 11.15113,-5.03 11.15113,-11.15 0,-6.11875 -5.03175,-11.15 -11.15113,-11.15 l 0,22.3 z"
     id="path31" />
  <path
     style="fill:#000000;fill-rule:evenodd;stroke:none"
     d="m 163.37274,120.7224 c 0.34916,6.42137 2.84403,12.75029 7.67773,17.58399 10.64461,10.64461 27.94054,10.6454 38.58594,0 4.88904,-4.88904 7.52426,-11.1746 7.92578,-17.58399 l -12.68555,0 c -0.36625,3.16667 -1.74589,6.23613 -4.16601,8.65625 -5.70467,5.70466 -15.02783,5.70458 -20.73242,0 -2.41262,-2.41261 -3.79714,-5.48552 -4.16797,-8.65625 l -12.4375,0 z"
     id="path3515"
     inkscape:connector-curvature="0" />
  <path
     id="path3520"
     d="m 81.12537,39.486363 14.7,-7.09475 c 0.935,-0.31363 1.9775,-0.0976 2.71,0.56162 1.28375,1.15113 1.2175,3.17738 -0.165,4.21988 l -13.09625,6.47275 -4.14875,-4.1595 z"
     style="fill:#000000;fill-rule:evenodd;stroke:none"
     inkscape:connector-curvature="0" />
</svg>
