<svg viewBox="0 0 64.1 37.83">
    <path
        d="M16.69,46.43a10.35,10.35,0,0,0,10.23-8.75l-4.53,1.2a6.36,6.36,0,1,1-.5-6.48L16.12,34a2.18,2.18,0,0,0-1.55,2.68,2.2,2.2,0,0,0,2.69,1.55l12.26-3.29v6.38H43.73c2.09,0,3.9-.81,3.9-4.11,0-6,2.14-9.16,5.41-11.44l5.64,11.16a1.84,1.84,0,0,0,2.46.8,1.8,1.8,0,0,0,.8-2.45l-2.76-5.46a6.37,6.37,0,1,1-4.9,3.63l-2-4.16a10.46,10.46,0,1,0,5.06-3.17l-1-2a12.57,12.57,0,0,1,11.66,2h1.74a12.84,12.84,0,0,0-15.07-5.34l-.32-.62c1.72-.73,2.07-2.9,1.13-4.69s-2.79-2.62-4.41-1.8L49,9.55a1.93,1.93,0,0,0-2.54-.76l-3.57,1.37H41.71a1.46,1.46,0,0,0,0,2.92h1.68l2.73-1,3,6A5.42,5.42,0,0,0,44.54,17a2.22,2.22,0,0,0-1.73-.85h-.94a2.23,2.23,0,0,0-2.2,2.51c-1.55.7-3,1.52-4.27,2.23a1.56,1.56,0,0,0-1.61-1.45L19.13,18.33a1.56,1.56,0,0,0-1.62,1.49v.75H9.84v4.92a12.59,12.59,0,0,1,18.27,5.24l-2.2.59a10.37,10.37,0,1,0-9.22,15.11Z"
        transform="translate(-6.32 -8.61)"></path>
</svg>