<svg id="shape-snowmobile" viewBox="0 0 60.73 37.8">
    <path d="M8.65,39.71A4.27,4.27,0,0,0,8,42a4.23,4.23,0,0,0,4.22,4.23H37.34A4.23,4.23,0,0,0,41.56,42a4.18,4.18,0,0,0-.64-2.24Zm59.75.52a1.14,1.14,0,0,0-1.62,0c-1.49,1.54-5,4-7.47,3.89h-3l-4.82-6.83H57l0-.07,5.79-5.95c-3-4.8-12-12-19.63-14.55L38.5,8.62,36.32,9.81l4.31,9.77L34,28.14H23.48l-2.77-5.06h-5L9.36,37.29H46.8l4.82,6.83H45.14a1.15,1.15,0,0,0,0,2.3H59.31c3.7-.06,7.27-2.79,9.09-4.56A1.15,1.15,0,0,0,68.4,40.23Z" transform="translate(-8.01 -8.62)"></path>
</svg>