<svg id="shape-personal-watercraft" viewBox="0 0 71.96 38.19">
        <path d="M44.76,14.5l1.21-3-12.16-3-.61,1.83s4.87,3.65,5.48,4.25S44.76,14.5,44.76,14.5Z" transform="translate(-2.39 -8.42)"></path>
        <path d="M72.73,27.27H70.9S65.43,16.33,49.62,14.5L47.8,17.55H39.28l-.6,3-3,4.86H33.08V23.61s-4.25.61-4.86-.61-14-2.43-17-1.82C9.11,21.6,9,24,9.18,25.45H8.27L6.45,27.27H4S.37,30.87,4,32.7H72.73S76.38,29.1,72.73,27.27Z" transform="translate(-2.39 -8.42)"></path>
        <path d="M11.31,46.08s37.7,1.21,39.53,0,9.73-2.39,17.63-10.29H7.06Z" transform="translate(-2.39 -8.42)"></path>
    </svg>