<svg id="atv" version="1.1" viewBox="0 0 100 67.97" xmlns="http://www.w3.org/2000/svg">
 <path d="m77.252 12.292v-10.782c-4.0973 0-7.4398 2.426-7.4398 5.3911 0 2.9651 3.3425 5.3911 7.4398 5.3911z" stroke-width="1.797"/>
 <path d="m89.058 32.652 2.4979-12.472-23.236-7.5476-2.9651-6.667a8.2125 8.2125 0 0 0-4.4567-4.0434 2.7135 2.7135 0 0 0-2.5698-1.9228h-11.303a2.7495 2.7495 0 0 0 0 5.499h11.303a2.6956 2.6956 0 0 0 1.9947-0.86258 5.3911 5.3911 0 0 1 2.5518 2.444l2.4979 5.6068-8.2484 11.681-55.223-7.889v5.8045l12.13 6.1998 0.75476 2.9112a18.474 18.474 0 1 0 22.086 19.768h26.291a18.456 18.456 0 1 0 25.895-18.51zm-70.588 25.41a8.5539 8.5539 0 1 1 8.5539-8.536 8.536 8.536 0 0 1-8.5539 8.536zm63.076 0a8.5539 8.5539 0 1 1 8.5539-8.536 8.536 8.536 0 0 1-8.5539 8.536z" stroke-width="1.797"/>
</svg>
