<svg id="car" version="1.1" viewBox="0 0 100 81.417" xmlns="http://www.w3.org/2000/svg">
 <path d="m100 26c0-2.6667-2.3333-5-5-5h-5.3333l-5-13.667c-1.3333-4-4.6667-7.3333-10.667-7.3333h-48.333c-6 0-9.3333 3.3333-10.667 7.3333l-5 13.667h-5c-2.6667 0-5 2.3333-5 5 0 2.6667 2.3333 5 5 5h1.3333l-1.3333 3.6667s-1 2.3333-1 5.3333v33.667c0 10.333 14.333 10.333 14.333 0v-4.3333h63v4.3333c0 10.333 14.333 10.333 14.333 0v-33.667c0-3-1-5.3333-1-5.3333l-1.3333-3.6667h1.6667c2.6667 0 5-2 5-5zm-80.333-10.333c0.66667-2.3333 1.6667-4 4.3333-4h50.667c2.3333 0 3.6667 1.6667 4.3333 4l5 16.667h-69.667zm0 39c-3.6667 0-6.6667-3-6.6667-6.6667 0-4 3-7 6.6667-6.6667 3.6667 0 6.6667 3 6.6667 6.6667 0 3-3 6.6667-6.6667 6.6667zm59.667 0c-3.6667 0-6.6667-3-6.6667-6.6667 0-4 3-7 6.6667-6.6667 3.6667 0 6.6667 3 6.6667 6.6667 0.33333 3-2.6667 6.6667-6.6667 6.6667z" stroke-width="3.3333"/>
</svg>
