<svg width="28.046mm" height="9.4215mm" version="1.1" viewBox="0 0 28.046 9.4215" xmlns="http://www.w3.org/2000/svg">
 <g transform="translate(-134.19 -151.37)">
  <g transform="matrix(-.089376 0 0 .089376 164.23 148.57)">
   <path transform="scale(.26458)" d="m777.71 118.51c-74.651-0.81158-131.1 10.487-194.6 39.736-45.842 21.203-86.882 53.747-135.23 68.346-39.253 11.851-81.545 8.817-122.15 14.541-44.74 6.3074-89.688 11.954-133.78 21.812-28.802 7.1681-71.38 13.693-87.248 37.807-15.637 24.759-19.696 56.52-18.904 85.793 0.24479 9.0518 7.2001 17.121 7.2715 26.176 0.09082 11.521-8.7246 33.445-8.7246 33.445 33.325 11.414 79.977 15.994 79.977 15.994-1.5152-27.956-5.5747-60.62 6.1543-83.252 18.928-36.523 44.933-58.156 87.008-58.156 41.51 0 60.419 9.1046 87.273 38.768 21.56 32.187 21.57 53.601 21.689 102.64 185.19-5.0312 415.13-4.3613 545.3-4.3613 1.6506-29.106 3.894-66.246 24.865-97.027 16.362-21.242 47.113-40.844 83.873-40.607 36.76 0.23646 57.436 15.437 82.586 47.572 7.1592 17.548 19.311 33.263 16.617 82.791 61.57-11.386 104.5-15.133 139.6-21.812 10.858-2.066 6.991-21.074 8.7246-31.99 5.4227-54.636 3.9038-144.3-31.992-173.04-7.408-5.4714-18.451 0.78524-27.627 0-28.424-2.4324-56.426-8.6558-84.34-14.543-7.822-1.6497-15.794-2.9784-23.268-5.8164-23.511-8.9283-44.316-23.809-66.889-34.898-73.657-42.38-153.85-49.916-256.18-49.916zm4.2062 27.568c12.499 0.12539 24.669 0.33123 36.512 0.74024 11.843 0.40901 23.36 1.0204 34.549 1.959 16.257 1.3828 33.34 3.7075 48.152 6.8418 5.1064 1.097 10.132 2.3217 15.076 3.6894l-8.5996 80.043-134.29 3.3086zm-29.166 0.54297-35.289 99.828-246.53 18.035c14.262-11.422 28.527-22.172 42.508-31.945 19.09-13.296 39.933-26.203 58.908-36.439 17.551-9.3922 36.66-18.088 53.912-24.635 16.369-6.1469 34.06-11.399 49.857-15.049 15.499-3.5243 32.074-6.1219 46.738-7.6777 10.241-1.0485 20.321-1.7257 29.891-2.1172zm177.35 17.979c13.496 7.3728 22.909 13.927 33.549 20.746 9.9878 6.4669 19.595 12.856 28.367 19.832 5.3731 4.4511 10.307 8.6249 14.408 13.662 2.0643 2.6122 3.9103 5.3402 4.9824 8.293 0.8534 2.4921 1.1176 5.1317 0.4434 7.4902-0.3444 1.1747-0.9074 2.3115-1.7051 3.4062l-87.32 0.66016z" fill-rule="evenodd"/>
   <circle cx="69.555" cy="113.97" r="22.794"/>
   <circle cx="268.9" cy="113.97" r="22.794"/>
  </g>
 </g>
</svg>
