<svg version="1.1" viewBox="0 0 100 59.24" xmlns="http://www.w3.org/2000/svg">
 <path d="m16.139 58.881a16.103 16.103 0 0 0 15.916-13.613l-7.0478 1.867a9.8949 9.8949 0 1 1-0.7779-10.082l-8.977 2.4893a3.3916 3.3916 0 0 0-2.4115 4.1695 3.4228 3.4228 0 0 0 4.1851 2.4115l19.074-5.1186v9.926h22.108c3.2516 0 6.0676-1.2602 6.0676-6.3943 0-9.3348 3.3294-14.251 8.4169-17.798l8.7747 17.363a2.8627 2.8627 0 0 0 3.8273 1.2446 2.8004 2.8004 0 0 0 1.2446-3.8117l-4.294-8.4947a9.9105 9.9105 0 1 1-7.6234 5.6476l-3.1116-6.4721a16.274 16.274 0 1 0 7.8724-4.9319l-1.5558-3.1116a19.556 19.556 0 0 1 18.141 3.1116h2.7071a19.976 19.976 0 0 0-23.446-8.308l-0.49786-0.9646c2.676-1.1357 3.2205-4.5118 1.7581-7.2967-1.4625-2.7849-4.3407-4.0762-6.8611-2.8004l-3.2205-6.4099a3.0027 3.0027 0 0 0-3.9517-1.1824l-5.5542 2.1314h-1.8358a2.2715 2.2715 0 0 0 0 4.5429h2.6137l4.2473-1.5558 4.6674 9.3348a8.4324 8.4324 0 0 0-7.1256-1.6803 3.4539 3.4539 0 0 0-2.6915-1.3224h-1.4625a3.4694 3.4694 0 0 0-3.4228 3.9051c-2.4115 1.0891-4.6674 2.3648-6.6433 3.4694a2.4271 2.4271 0 0 0-2.5048-2.2559l-22.808-1.7269a2.4271 2.4271 0 0 0-2.5204 2.3181v1.1669h-11.933v7.6545a19.588 19.588 0 0 1 28.425 8.1524l-3.4228 0.91792a16.134 16.134 0 1 0-14.344 23.508z" stroke-width="1.5558"/>
</svg>
