<svg version="1.1" viewBox="0 0 100 60.79" xmlns="http://www.w3.org/2000/svg">
 <g transform="translate(-20 -20)" fill-rule="evenodd">
  <path d="m91.012 23.432-6.9713-3.3646c-0.44341-0.14874-0.9378-0.04629-1.2852 0.26634-0.6088 0.54591-0.57738 1.5068 0.0782 2.0012l6.2107 3.0696z"/>
  <path d="m92.824 31.085v2.2064c2.1697 3.0499 4.523 7.0169 5.7747 10.349 1.0438 2.7767 1.7659 5.6096 2.1409 8.4841 0.99722-0.13397 2.0225-0.20333 3.0679-0.20333 3.1832 0 6.1794 0.63903 8.7796 1.7908l-24.369 19.646c-1.6014-2.1204-2.6779-5.5349-2.6779-8.1675l-36.194-0.0065 3.4831-2.731 25.206-0.0019c4.0218 0.0077 8.4132-4.2272 8.4162-8.3323l0.0394-18.067 6.3334-4.9664z"/>
  <path d="m65.658 48.86v-11.45h-36.037l-0.92713 1.07-2.1169 3.4145-1.3166 3.1264-1.1328 3.6018-0.5762 2.8567-0.39243 3.0446-0.3705 4.1134-0.04562 2.7974-2.7429-0.0077v2.67l2.7358 4.75e-4v1.0884l26.628 0.0059 16.295-16.332z"/>
  <path d="m64.728 30.63c0.4938 0 0.92772 0.43333 0.92772 0.92713v3.0256h-33.201l0.80383-0.8637 1.8288-1.5863 1.1933-0.80324 1.1927-0.4938 1.1743-0.18317h0.05987z"/>
  <path d="m95.808 74.249 4.5472-4.5473c0.82262 2.9207 3.5151 5.101 6.7054 5.101 3.826 0 6.952-3.1264 6.952-6.9523 0-3.3321-2.3856-6.152-5.5308-6.81l4.5658-4.5438c4.0321 2.1993 6.9526 6.4585 6.9526 11.354 0 7.139-5.8 12.94-12.94 12.94-4.813 0-9.0089-2.6326-11.253-6.5409z"/>
  <path d="m104.33 36.731c-2.902 0-5.2883-2.3854-5.2883-5.2877 0-2.9017 2.3862-5.2877 5.2883-5.2877z"/>
  <path d="m52.007 67.766c-0.16558 3.0452-1.3487 6.0466-3.641 8.339-5.0481 5.0481-13.25 5.0484-18.299 0-2.3186-2.3186-3.5683-5.2994-3.7587-8.339h6.0159c0.17369 1.5018 0.82796 2.9574 1.9757 4.1051 2.7054 2.7054 7.1267 2.7053 9.8321 0 1.1442-1.1442 1.8007-2.6014 1.9766-4.1051z"/>
  <path d="m91.012 29.241-6.9713-3.3646c-0.44341-0.14874-0.9378-0.04628-1.2852 0.26634-0.6088 0.54591-0.57738 1.5068 0.0782 2.0012l6.2107 3.0696z"/>
 </g>
</svg>
