<svg id="shape-snowmobile" version="1.1" viewBox="0 0 100 62.234" xmlns="http://www.w3.org/2000/svg">
 <path d="m1.0703 51.186a7.0301 7.0301 0 0 0-1.0702 3.7702 6.9643 6.9643 0 0 0 6.9478 6.9643h41.357a6.9643 6.9643 0 0 0 6.9478-6.9643 6.8819 6.8819 0 0 0-1.0537-3.6879zm98.372 0.85613a1.8769 1.8769 0 0 0-2.6672 0c-2.4531 2.5354-8.232 6.5856-12.299 6.4045h-4.9392l-7.9356-11.245h9.0716v-0.11525l9.5326-9.7961c-4.9392-7.9027-19.757-19.757-32.319-23.955l-7.6722-13.336-3.5891 1.9592 7.096 16.085-10.916 14.093h-17.32l-4.5605-8.3308h-8.232l-10.455 23.395h61.641l7.9356 11.245h-10.669a1.8934 1.8934 0 0 0 0 3.7867h23.329c6.0917-0.09878 11.969-4.5934 14.966-7.5076a1.8934 1.8934 0 0 0 0-2.6836z" stroke-width="1.6464"/>
</svg>
