<svg id="watercraft" version="1.1" viewBox="0 0 100 52.967" xmlns="http://www.w3.org/2000/svg">
 <g stroke-width="1.3896">
  <path d="m58.88 8.3373 1.6814-4.1687-16.897-4.1687-0.84763 2.5429s6.7671 5.0719 7.6148 5.9056 8.4485-0.11116 8.4485-0.11116z"/>
  <path d="m97.746 26.082h-2.5429s-7.6009-15.202-29.57-17.745l-2.529 4.2381h-11.839l-0.83373 4.1687-4.1687 6.7532h-3.6128v-2.5012s-5.9056 0.84763-6.7532-0.84763c-0.84763-1.6953-19.454-3.3766-23.622-2.529-2.932 0.58361-3.0848 3.9185-2.8347 5.9334h-1.2645l-2.529 2.529h-3.4044s-5.0441 5.0024 0 7.5453h95.504s5.0719-5.0024 0-7.5453z"/>
  <path d="m12.399 52.219s52.386 1.6814 54.929 0c2.5429-1.6814 13.52-3.321 24.498-14.299h-85.332z"/>
 </g>
</svg>
